<svg width="26" height="27" viewBox="0 0 26 27" fill="none" xmlns="http://www.w3.org/2000/svg">
<path opacity="0.2" d="M0.5 9.30204C0.5 4.79172 4.15634 1.13538 8.66667 1.13538H17.3333C21.8437 1.13538 25.5 4.79172 25.5 9.30204V17.9687C25.5 22.479 21.8437 26.1354 17.3333 26.1354H8.66667C4.15634 26.1354 0.5 22.479 0.5 17.9687V9.30204Z" stroke="black"/>
<path fill-rule="evenodd" clip-rule="evenodd" d="M6.5 10.9738C6.5 8.80893 8.25497 7.05396 10.4198 7.05396L18.3092 7.05396C18.9668 7.05396 19.5 7.58711 19.5 8.24479C19.5 8.90248 18.9668 9.43563 18.3092 9.43563L10.4198 9.43563C9.57034 9.43563 8.88168 10.1243 8.88168 10.9738C8.88168 11.8233 9.57034 12.512 10.4198 12.512L15.7042 12.512C17.8006 12.512 19.5 14.3248 19.5 16.4211C19.5 18.5175 17.8006 20.2169 15.7042 20.2169H7.69085C7.03317 20.2169 6.50001 19.6838 6.50001 19.0261C6.50001 18.3684 7.03317 17.8353 7.69085 17.8353H15.7042C16.4852 17.8353 17.1183 17.2021 17.1183 16.4211C17.1183 15.6401 16.4852 14.8936 15.7042 14.8936H10.4198C8.25497 14.8936 6.5 13.1387 6.5 10.9738Z" fill="#2563EB"/>
</svg>
