<svg width="87" height="27" viewBox="0 0 87 27" fill="none" xmlns="http://www.w3.org/2000/svg">
<path opacity="0.2" d="M0.5 9.30204C0.5 4.79172 4.15634 1.13538 8.66667 1.13538H17.3333C21.8437 1.13538 25.5 4.79172 25.5 9.30204V17.9687C25.5 22.479 21.8437 26.1354 17.3333 26.1354H8.66667C4.15634 26.1354 0.5 22.479 0.5 17.9687V9.30204Z" stroke="white"/>
<path fill-rule="evenodd" clip-rule="evenodd" d="M6.5 10.9738C6.5 8.80893 8.25497 7.05396 10.4198 7.05396L18.3092 7.05396C18.9668 7.05396 19.5 7.58711 19.5 8.24479C19.5 8.90248 18.9668 9.43563 18.3092 9.43563L10.4198 9.43563C9.57034 9.43563 8.88168 10.1243 8.88168 10.9738C8.88168 11.8233 9.57034 12.512 10.4198 12.512L15.7042 12.512C17.8006 12.512 19.5 14.3248 19.5 16.4211C19.5 18.5175 17.8006 20.2169 15.7042 20.2169H7.69085C7.03317 20.2169 6.50001 19.6838 6.50001 19.0261C6.50001 18.3684 7.03317 17.8353 7.69085 17.8353H15.7042C16.4852 17.8353 17.1183 17.2021 17.1183 16.4211C17.1183 15.6401 16.4852 14.8936 15.7042 14.8936H10.4198C8.25497 14.8936 6.5 13.1387 6.5 10.9738Z" fill="#2563EB"/>
<path d="M33.168 19.6355V18.2755H38.016C38.3893 18.2755 38.7093 18.1902 38.976 18.0195C39.2427 17.8382 39.4507 17.6088 39.6 17.3315C39.7493 17.0542 39.824 16.7608 39.824 16.4515C39.824 16.1315 39.7493 15.8382 39.6 15.5715C39.4613 15.2942 39.2587 15.0755 38.992 14.9155C38.736 14.7448 38.4213 14.6595 38.048 14.6595H35.936C35.3067 14.6595 34.752 14.5315 34.272 14.2755C33.792 14.0088 33.4133 13.6462 33.136 13.1875C32.8693 12.7182 32.736 12.1902 32.736 11.6035C32.736 11.0062 32.864 10.4675 33.12 9.9875C33.3867 9.5075 33.7547 9.12883 34.224 8.8515C34.704 8.57416 35.2533 8.4355 35.872 8.4355H40.624V9.7955H36.016C35.664 9.7955 35.3547 9.88083 35.088 10.0515C34.8213 10.2115 34.6187 10.4248 34.48 10.6915C34.3413 10.9475 34.272 11.2248 34.272 11.5235C34.272 11.8115 34.336 12.0888 34.464 12.3555C34.6027 12.6115 34.8 12.8195 35.056 12.9795C35.3227 13.1395 35.6267 13.2195 35.968 13.2195H38.128C38.8 13.2195 39.376 13.3528 39.856 13.6195C40.336 13.8862 40.704 14.2488 40.96 14.7075C41.216 15.1662 41.344 15.6888 41.344 16.2755C41.344 16.9262 41.2107 17.5075 40.944 18.0195C40.688 18.5208 40.32 18.9155 39.84 19.2035C39.36 19.4915 38.8107 19.6355 38.192 19.6355H33.168ZM43.1993 19.6355V7.9555H44.6713V12.5315C45.0019 12.1048 45.4019 11.7902 45.8713 11.5875C46.3513 11.3848 46.8473 11.2835 47.3593 11.2835C48.0846 11.2835 48.7139 11.4382 49.2473 11.7475C49.7806 12.0462 50.1966 12.4675 50.4953 13.0115C50.7939 13.5555 50.9433 14.1902 50.9433 14.9155V19.6355H49.4713V14.9315C49.4713 14.4408 49.3593 14.0195 49.1353 13.6675C48.9113 13.3048 48.6126 13.0275 48.2393 12.8355C47.8766 12.6435 47.4873 12.5475 47.0713 12.5475C46.6553 12.5475 46.2659 12.6435 45.9033 12.8355C45.5406 13.0168 45.2419 13.2835 45.0073 13.6355C44.7833 13.9875 44.6713 14.4088 44.6713 14.8995V19.6355H43.1993ZM57.1174 19.8275C56.2854 19.8275 55.5494 19.6408 54.9094 19.2675C54.2694 18.8835 53.7627 18.3715 53.3894 17.7315C53.016 17.0808 52.8294 16.3555 52.8294 15.5555C52.8294 14.7555 53.016 14.0355 53.3894 13.3955C53.7627 12.7448 54.2694 12.2328 54.9094 11.8595C55.5494 11.4755 56.2854 11.2835 57.1174 11.2835C57.9494 11.2835 58.6854 11.4755 59.3254 11.8595C59.976 12.2328 60.4827 12.7395 60.8454 13.3795C61.2187 14.0195 61.4054 14.7448 61.4054 15.5555C61.4054 16.3555 61.2187 17.0808 60.8454 17.7315C60.4827 18.3715 59.976 18.8835 59.3254 19.2675C58.6854 19.6408 57.9494 19.8275 57.1174 19.8275ZM57.1174 18.5635C57.6827 18.5635 58.1734 18.4302 58.5894 18.1635C59.0054 17.8968 59.3307 17.5395 59.5654 17.0915C59.8 16.6328 59.9174 16.1208 59.9174 15.5555C59.9174 14.9902 59.8 14.4835 59.5654 14.0355C59.3307 13.5768 59.0054 13.2142 58.5894 12.9475C58.1734 12.6808 57.6827 12.5475 57.1174 12.5475C56.5627 12.5475 56.072 12.6808 55.6454 12.9475C55.2294 13.2142 54.904 13.5768 54.6694 14.0355C54.4347 14.4835 54.3174 14.9902 54.3174 15.5555C54.3174 16.1208 54.4347 16.6328 54.6694 17.0915C54.904 17.5395 55.2294 17.8968 55.6454 18.1635C56.072 18.4302 56.5627 18.5635 57.1174 18.5635ZM67.421 11.2835C68.0397 11.2835 68.605 11.3848 69.117 11.5875C69.629 11.7795 70.0717 12.0675 70.445 12.4515C70.8183 12.8355 71.1063 13.2995 71.309 13.8435C71.5223 14.3768 71.629 14.9795 71.629 15.6515C71.629 16.4942 71.453 17.2302 71.101 17.8595C70.7597 18.4888 70.2903 18.9742 69.693 19.3155C69.0957 19.6568 68.4183 19.8275 67.661 19.8275C67.245 19.8275 66.845 19.7582 66.461 19.6195C66.0877 19.4808 65.7517 19.2888 65.453 19.0435C65.165 18.7875 64.9303 18.4995 64.749 18.1795H64.717V23.1555H63.245V15.6035C63.245 14.6862 63.4263 13.9075 63.789 13.2675C64.1623 12.6275 64.6637 12.1368 65.293 11.7955C65.9223 11.4542 66.6317 11.2835 67.421 11.2835ZM67.421 12.5475C66.9303 12.5475 66.477 12.6702 66.061 12.9155C65.6557 13.1608 65.3303 13.5075 65.085 13.9555C64.8503 14.4035 64.733 14.9315 64.733 15.5395C64.733 16.1582 64.8503 16.6968 65.085 17.1555C65.3303 17.6035 65.6557 17.9502 66.061 18.1955C66.477 18.4408 66.9357 18.5635 67.437 18.5635C67.949 18.5635 68.4077 18.4355 68.813 18.1795C69.2183 17.9235 69.5383 17.5715 69.773 17.1235C70.0183 16.6755 70.141 16.1528 70.141 15.5555C70.141 14.9368 70.0183 14.4035 69.773 13.9555C69.5277 13.5075 69.197 13.1608 68.781 12.9155C68.3757 12.6702 67.9223 12.5475 67.421 12.5475Z" fill="white"/>
<path d="M73.5118 19.6355V7.9555H74.9838V19.6355H73.5118ZM77.3243 19.6355V11.4755H78.8123V19.6355H77.3243ZM78.0763 10.1795C77.8096 10.1795 77.5749 10.0835 77.3723 9.8915C77.1803 9.68883 77.0843 9.45416 77.0843 9.1875C77.0843 8.92083 77.1803 8.6915 77.3723 8.4995C77.5749 8.29683 77.8096 8.1955 78.0763 8.1955C78.3429 8.1955 78.5723 8.29683 78.7643 8.4995C78.9669 8.6915 79.0683 8.92083 79.0683 9.1875C79.0683 9.45416 78.9669 9.68883 78.7643 9.8915C78.5723 10.0835 78.3429 10.1795 78.0763 10.1795ZM83.9208 19.6355C83.1954 19.6355 82.6248 19.4275 82.2088 19.0115C81.8034 18.5955 81.6008 18.0302 81.6008 17.3155V9.4275H83.0728V17.2195C83.0728 17.5715 83.1688 17.8542 83.3608 18.0675C83.5634 18.2702 83.8408 18.3715 84.1927 18.3715H85.8408V19.6355H83.9208ZM80.1928 12.7395V11.4755H85.8728V12.7395H80.1928Z" fill="#2563EB"/>
</svg>
