<?xml version="1.0" encoding="UTF-8"?>
<svg version="1.1" xmlns="http://www.w3.org/2000/svg" width="494" height="505">
<path d="M0 0 C0 11.88 0 23.76 0 36 C3.63 35.67 7.26 35.34 11 35 C13.00797337 34.89795782 15.01732746 34.8168415 17.02740479 34.77258301 C18.61574631 34.73482506 18.61574631 34.73482506 20.23617554 34.69630432 C21.357388 34.67341843 22.47860046 34.65053253 23.63378906 34.62695312 C24.84690765 34.59915268 26.06002625 34.57135223 27.30990601 34.54270935 C30.60816361 34.46776613 33.90647276 34.39608782 37.20483112 34.32575035 C40.6908008 34.25047505 44.17666258 34.17050293 47.66253662 34.09094238 C55.02515502 33.9235825 62.38786756 33.76072012 69.75061035 33.59893799 C80.78286397 33.3565247 91.8150458 33.11096331 102.84712005 32.86051702 C106.29782967 32.78232525 109.74855593 32.70520348 113.19934845 32.63075256 C126.96358911 32.33294704 140.71843085 32.00313056 154.47000504 31.3245163 C162.64934485 30.92814543 170.81316766 30.90109867 179 31 C179.28154363 44.19622252 178.44125353 57.06855926 177.0625 70.1875 C176.87746873 72.02140519 176.6932209 73.85538961 176.50976562 75.68945312 C175.21116048 88.52846655 175.21116048 88.52846655 174.45239258 93.81616211 C173.90549857 97.66507993 173.76841122 101.49583049 173.625 105.375 C173.29289981 112.89274229 172.53158313 120.28948501 171.5625 127.75 C170.390668 136.8707591 169.63231568 145.94433966 169.125 155.125 C168.29924209 169.77163432 166.76369341 184.31423357 165.16131592 198.89416504 C163.57234026 213.36225215 162.1315856 227.80778899 161.21777344 242.33740234 C160.89914808 246.23306171 160.43164015 250.11523864 160 254 C169.24 254 178.48 254 188 254 C189.12448122 265.24481222 189.12448122 265.24481222 189.32543945 270.31079102 C189.39627998 272.03248253 189.39627998 272.03248253 189.46855164 273.78895569 C189.51631241 275.01488937 189.56407318 276.24082306 189.61328125 277.50390625 C189.66778547 278.83684284 189.72267242 280.16976382 189.77790833 281.50267029 C189.89613196 284.36005263 190.01316053 287.21747976 190.12921143 290.07495117 C191.33407428 319.65894973 192.81221838 349.22162996 194.51476479 378.78107166 C194.72266611 382.39560811 194.92842671 386.01026315 195.1328125 389.625 C195.19208923 390.67140939 195.19208923 390.67140939 195.25256348 391.73895836 C195.86975332 402.72162979 196.289373 413.70465553 196.63111877 424.69940186 C197.00544721 436.23639367 197.74829958 447.73695433 198.5625 459.25 C198.7719915 462.24356805 198.97994953 465.23721731 199.18431091 468.23114014 C199.30917206 470.05789411 199.43689988 471.88445571 199.56825256 473.71075439 C199.9425194 479.15455128 200.0545962 484.54312723 200 490 C185.90986018 490.06032066 171.83616483 489.89142248 157.75 489.5625 C156.26333832 489.52890381 156.26333832 489.52890381 154.74664307 489.49462891 C143.22407235 489.23326311 131.71104674 488.91903733 120.19799805 488.37304688 C110.65646985 487.94096513 101.11103822 487.76391676 91.5625 487.5625 C64.69911048 486.99472866 37.8505384 485.99116173 11 485 C11.33 485.66 11.66 486.32 12 487 C12.0716735 489.55157655 12.09308442 492.07472971 12.0625 494.625 C12.05798828 495.33140625 12.05347656 496.0378125 12.04882812 496.765625 C12.03703875 498.51045275 12.01910324 500.255237 12 502 C8.71972169 503.0934261 7.36579375 502.90744347 4.01953125 502.328125 C2.53308105 502.07579102 2.53308105 502.07579102 1.01660156 501.81835938 C-0.04075195 501.63080078 -1.09810547 501.44324219 -2.1875 501.25 C-3.27450195 501.06244141 -4.36150391 500.87488281 -5.48144531 500.68164062 C-8.6560341 500.13043795 -11.82838675 499.56805013 -15 499 C-15.78262207 498.86013672 -16.56524414 498.72027344 -17.37158203 498.57617188 C-23.5032805 497.47104858 -29.61681767 496.28897518 -35.71875 495.03125 C-45.11237089 493.1021125 -54.48103164 491.42707552 -63.97583008 490.07641602 C-69.67281663 489.24867771 -75.22095917 488.10936741 -80.81201172 486.7265625 C-83.7924766 486.04729588 -86.73413746 485.53577559 -89.7578125 485.09375 C-97.3816126 483.95053166 -104.98749094 482.71145668 -112.5925293 481.45043945 C-114.15381281 481.19214903 -115.71533698 480.93530908 -117.27709961 480.67993164 C-126.1999978 479.22067087 -135.03940056 477.60549036 -143.87084961 475.65405273 C-149.13714671 474.55329515 -154.44955801 473.86663763 -159.78320312 473.18359375 C-165.45545388 472.39841345 -170.63138572 470.98998568 -176 469 C-176.29082831 458.47117202 -175.48740239 448.02361982 -174.77511597 437.52600098 C-173.73462292 422.10573567 -172.79256381 406.70240499 -172.4375 391.25 C-172.16148352 379.33971735 -171.66948824 367.45753668 -171 355.5625 C-170.95793427 354.80432983 -170.91586853 354.04615967 -170.87252808 353.26501465 C-170.5108424 346.79591191 -170.1354578 340.33925306 -169.51586914 333.88916016 C-168.90290188 327.27493362 -168.57117114 320.65322725 -168.24609375 314.01953125 C-168.18092056 312.72552902 -168.11574738 311.43152679 -168.04859924 310.09831238 C-167.87732238 306.6971477 -167.70868801 303.29585725 -167.54064941 299.89453125 C-167.36792331 296.40812137 -167.19263518 292.92184035 -167.01757812 289.43554688 C-166.675912 282.62382021 -166.33704408 275.81195689 -166 269 C-167.17369141 269.12568359 -167.17369141 269.12568359 -168.37109375 269.25390625 C-169.38300781 269.35574219 -170.39492187 269.45757812 -171.4375 269.5625 C-172.44683594 269.66691406 -173.45617187 269.77132813 -174.49609375 269.87890625 C-175.32238281 269.91886719 -176.14867187 269.95882813 -177 270 C-178.92966817 268.07033183 -178.63054551 264.62084743 -178.9375 262.04296875 C-179.02249756 261.34359695 -179.10749512 260.64422516 -179.19506836 259.92366028 C-179.46745058 257.67874239 -179.73413466 255.43319831 -180 253.1875 C-180.2664666 250.95259557 -180.53419984 248.71786665 -180.80493164 246.48347473 C-180.9734191 245.09144693 -181.1393754 243.69910984 -181.30249023 242.30644226 C-181.68485251 239.13352243 -182.17660215 236.08655581 -183 233 C-183.29558126 230.52121454 -183.56323106 228.04592599 -183.8125 225.5625 C-184.69726039 217.16170011 -185.82675633 208.80244229 -187 200.4375 C-188.07403406 192.77751828 -189.13905071 185.12454722 -190 177.4375 C-190.94949116 169.02652083 -192.16925878 160.65858303 -193.41601562 152.28686523 C-194.52575289 144.71535963 -195.47693082 137.13431494 -196.375 129.53515625 C-198.05622854 115.31961517 -199.92102107 101.12953364 -201.7979126 86.9387207 C-202.58725134 80.96851571 -203.37369428 74.99792825 -204.16015625 69.02734375 C-204.40738434 67.15150101 -204.40738434 67.15150101 -204.65960693 65.23776245 C-205.67585359 57.51160223 -206.66652526 49.78298347 -207.62182617 42.04907227 C-208.09971477 38.19603761 -208.60702164 34.34783927 -209.125 30.5 C-209.29257813 29.2521875 -209.46015625 28.004375 -209.6328125 26.71875 C-209.75398438 25.8215625 -209.87515625 24.924375 -210 24 C-205.82220765 22.48655786 -201.91008841 21.58205793 -197.50390625 21.03515625 C-196.23869141 20.876521 -194.97347656 20.71788574 -193.66992188 20.55444336 C-192.30082804 20.39007207 -190.93168605 20.22610143 -189.5625 20.0625 C-188.13475711 19.88752064 -186.70702288 19.71247064 -185.27929688 19.53735352 C-174.24049077 18.19970126 -163.18622668 17.10487311 -152.11450195 16.07666016 C-143.14094221 15.235371 -134.20709974 14.20738562 -125.26904297 13.05224609 C-119.55999913 12.31531487 -113.85218584 11.64122299 -108.125 11.0625 C-100.0182446 10.24203584 -91.92864762 9.29118801 -83.83810425 8.32635498 C-71.07817083 6.8050656 -58.31494539 5.37086352 -45.52905273 4.08105469 C-39.50709529 3.47210684 -33.48999552 2.8369748 -27.4765625 2.1484375 C-26.25316162 2.00865479 -25.02976074 1.86887207 -23.76928711 1.72485352 C-21.45454902 1.45836912 -19.14022237 1.18827509 -16.82641602 0.91381836 C-15.78412842 0.79401611 -14.74184082 0.67421387 -13.66796875 0.55078125 C-12.76328857 0.44419189 -11.8586084 0.33760254 -10.92651367 0.2277832 C-7.29453608 -0.0549093 -3.64296256 0 0 0 Z " fill="#B14C92" transform="translate(252,1)"/>
<path d="M0 0 C8.31418899 -0.13173891 16.57187601 0.08471024 24.875 0.47265625 C38.48326978 1.09221525 52.09270153 1.23785121 65.71224976 1.38870239 C94.83692512 1.71532657 123.90738951 2.54037659 153 4 C153.33 3.01 153.66 2.02 154 1 C154 1.99 154 2.98 154 4 C163.24 4 172.48 4 182 4 C183.12448122 15.24481222 183.12448122 15.24481222 183.32543945 20.31079102 C183.37266647 21.45858536 183.41989349 22.6063797 183.46855164 23.78895569 C183.51631241 25.01488937 183.56407318 26.24082306 183.61328125 27.50390625 C183.66778547 28.83684284 183.72267242 30.16976382 183.77790833 31.50267029 C183.89613196 34.36005263 184.01316053 37.21747976 184.12921143 40.07495117 C185.33407428 69.65894973 186.81221838 99.22162996 188.51476479 128.78107166 C188.72266611 132.39560811 188.92842671 136.01026315 189.1328125 139.625 C189.19208923 140.67140939 189.19208923 140.67140939 189.25256348 141.73895836 C189.86975332 152.72162979 190.289373 163.70465553 190.63111877 174.69940186 C191.00544721 186.23639367 191.74829958 197.73695433 192.5625 209.25 C192.7719915 212.24356805 192.97994953 215.23721731 193.18431091 218.23114014 C193.30917206 220.05789411 193.43689988 221.88445571 193.56825256 223.71075439 C193.9425194 229.15455128 194.0545962 234.54312723 194 240 C179.90986018 240.06032066 165.83616483 239.89142248 151.75 239.5625 C150.75889221 239.54010254 149.76778442 239.51770508 148.74664307 239.49462891 C137.22333201 239.23324632 125.70960557 238.91862538 114.19580078 238.37304688 C104.6757948 237.94220239 95.15198587 237.76386341 85.625 237.5625 C58.40774315 236.98619889 31.20503619 235.98431351 4 235 C3.68500342 219.33338281 3.37281133 203.66671068 3.0625 188 C3.03945423 186.83741417 3.01640846 185.67482834 2.99266434 184.47701263 C2.39044271 154.07372553 1.82154384 123.67082395 1.38165283 93.26473999 C1.14527386 76.97649761 0.82277124 60.69461308 0.37084961 44.41094971 C-0.0371182 29.60427769 -0.11594458 14.81236664 0 0 Z " fill="#EBC916" transform="translate(258,251)"/>
<path d="M0 0 C1.69939017 49.7248039 2.635889 99.45739605 3.47730255 149.20319366 C3.53476511 152.59410604 3.59261094 155.98501167 3.65057373 159.37591553 C3.6890979 161.63309714 3.72761106 163.89027895 3.76611328 166.14746094 C3.78521004 167.26550991 3.80430679 168.38355888 3.82398224 169.53548813 C3.94849329 176.86137833 4.06719571 184.18734556 4.18336964 191.51337242 C4.2644618 196.56663472 4.34951216 201.61982552 4.4354229 206.67300797 C4.47564918 209.09126125 4.51415741 211.50954376 4.55088997 213.92785263 C4.60171933 217.2620503 4.65843247 220.59609841 4.71655273 223.93017578 C4.73028616 224.92587208 4.74401958 225.92156837 4.75816917 226.94743729 C4.77512651 227.85271542 4.79208385 228.75799355 4.80955505 229.69070435 C4.82862994 230.87359637 4.82862994 230.87359637 4.84809017 232.08038521 C4.88587322 234.08446261 4.88587322 234.08446261 6 236 C6.0716735 238.55157655 6.09308442 241.07472971 6.0625 243.625 C6.05798828 244.33140625 6.05347656 245.0378125 6.04882812 245.765625 C6.03703875 247.51045275 6.01910324 249.255237 6 251 C2.71972169 252.0934261 1.36579375 251.90744347 -1.98046875 251.328125 C-2.97143555 251.15990234 -3.96240234 250.99167969 -4.98339844 250.81835938 C-6.04075195 250.63080078 -7.09810547 250.44324219 -8.1875 250.25 C-9.27450195 250.06244141 -10.36150391 249.87488281 -11.48144531 249.68164062 C-14.6560341 249.13043795 -17.82838675 248.56805013 -21 248 C-22.17393311 247.79020508 -22.17393311 247.79020508 -23.37158203 247.57617188 C-29.5032805 246.47104858 -35.61681767 245.28897518 -41.71875 244.03125 C-51.11237089 242.1021125 -60.48103164 240.42707552 -69.97583008 239.07641602 C-75.67281663 238.24867771 -81.22095917 237.10936741 -86.81201172 235.7265625 C-89.7924766 235.04729588 -92.73413746 234.53577559 -95.7578125 234.09375 C-103.3816126 232.95053166 -110.98749094 231.71145668 -118.5925293 230.45043945 C-120.15381281 230.19214903 -121.71533698 229.93530908 -123.27709961 229.67993164 C-132.1999978 228.22067087 -141.03940056 226.60549036 -149.87084961 224.65405273 C-155.13714671 223.55329515 -160.44955801 222.86663763 -165.78320312 222.18359375 C-171.45545388 221.39841345 -176.63138572 219.98998568 -182 218 C-182.29082831 207.47117202 -181.48740239 197.02361982 -180.77511597 186.52600098 C-179.73462292 171.10573567 -178.79256381 155.70240499 -178.4375 140.25 C-178.16148352 128.33971735 -177.66948824 116.45753668 -177 104.5625 C-176.95793427 103.80432983 -176.91586853 103.04615967 -176.87252808 102.26501465 C-176.5108424 95.79591191 -176.1354578 89.33925306 -175.51586914 82.88916016 C-174.90290188 76.27493362 -174.57117114 69.65322725 -174.24609375 63.01953125 C-174.18092056 61.72552902 -174.11574738 60.43152679 -174.04859924 59.09831238 C-173.87732238 55.6971477 -173.70868801 52.29585725 -173.54064941 48.89453125 C-173.36792331 45.40812137 -173.19263518 41.92184035 -173.01757812 38.43554688 C-172.675912 31.62382021 -172.33704408 24.81195689 -172 18 C-156.35164542 14.74065974 -140.63222737 13.48313642 -124.71435547 12.39819336 C-115.08299397 11.73453449 -105.62718873 10.78484295 -96.12466431 9.04237366 C-90.32428404 7.98486007 -84.6157437 7.5004225 -78.72265625 7.2109375 C-75.90630819 7.10321574 -75.90630819 7.10321574 -73 6 C-69.6798208 5.69194214 -66.3589659 5.49110596 -63.03125 5.28125 C-59.9565491 5.11175504 -59.9565491 5.11175504 -57 4 C-55.22686149 3.91790208 -53.45079225 3.89253706 -51.67578125 3.90234375 C-50.64775391 3.90556641 -49.61972656 3.90878906 -48.56054688 3.91210938 C-46.95276367 3.92467773 -46.95276367 3.92467773 -45.3125 3.9375 C-44.22904297 3.94201172 -43.14558594 3.94652344 -42.02929688 3.95117188 C-39.35280915 3.96296257 -36.67643223 3.97941937 -34 4 C-34 3.34 -34 2.68 -34 2 C-30.20893744 1.65955588 -26.41707386 1.32897241 -22.625 1 C-21.56410156 0.90460938 -20.50320312 0.80921875 -19.41015625 0.7109375 C-18.35957031 0.62070313 -17.30898437 0.53046875 -16.2265625 0.4375 C-14.79691162 0.31181641 -14.79691162 0.31181641 -13.33837891 0.18359375 C-8.89009047 -0.06103934 -4.45374594 -0.03479759 0 0 Z " fill="#31B24B" transform="translate(258,252)"/>
<path d="M0 0 C0.28154363 13.19622252 -0.55874647 26.06855926 -1.9375 39.1875 C-2.12253127 41.02140519 -2.3067791 42.85538961 -2.49023438 44.68945312 C-3.78883952 57.52846655 -3.78883952 57.52846655 -4.54760742 62.81616211 C-5.09450143 66.66507993 -5.23158878 70.49583049 -5.375 74.375 C-5.70710019 81.89274229 -6.46841687 89.28948501 -7.4375 96.75 C-8.609332 105.8707591 -9.36768432 114.94433966 -9.875 124.125 C-10.70074926 138.77148089 -12.23261361 153.31481985 -13.83969116 167.89416504 C-15.25151194 180.70378116 -16.59123976 193.48728774 -17.3671875 206.35473633 C-17.73660635 212.09458171 -18.61728099 217.41222195 -20 223 C-24.06248324 223.03005137 -28.12493679 223.04713644 -32.1875 223.0625 C-33.29931641 223.07087891 -34.41113281 223.07925781 -35.55664062 223.08789062 C-42.52714118 223.10741584 -49.44024585 222.89978342 -56.3984375 222.5234375 C-65.38799747 222.04882371 -74.37021669 221.85797656 -83.37109375 221.75390625 C-84.05229404 221.74590752 -84.73349434 221.73790878 -85.43533707 221.72966766 C-88.97594795 221.68860233 -92.5165788 221.64960527 -96.05722046 221.61129761 C-121.74248911 221.32959891 -147.36662097 220.77289151 -173 219 C-173.2965575 210.66683577 -173.58723667 202.33347236 -173.875 194 C-173.91979492 192.70315277 -173.96458984 191.40630554 -174.01074219 190.07015991 C-174.56498093 173.96096875 -175.07466647 157.85120656 -175.5078125 141.73828125 C-175.52824615 140.97910904 -175.54867981 140.21993683 -175.56973267 139.4377594 C-175.73489187 133.29122166 -175.8986637 127.14464682 -176.061203 120.99803925 C-176.6106031 100.23179705 -177.3058544 79.48331573 -178.25775146 58.73086548 C-179.05577282 41.14539385 -179.23677297 23.60133855 -179 6 C-178.28972656 5.93941406 -177.57945312 5.87882812 -176.84765625 5.81640625 C-175.46900391 5.69072266 -175.46900391 5.69072266 -174.0625 5.5625 C-173.14597656 5.48128906 -172.22945313 5.40007813 -171.28515625 5.31640625 C-169.03840268 5.23955024 -169.03840268 5.23955024 -168 4 C-166.39521048 3.86968233 -164.78483015 3.80766785 -163.17514038 3.77258301 C-162.12999268 3.74741104 -161.08484497 3.72223907 -160.00802612 3.69630432 C-158.8508609 3.67341843 -157.69369568 3.65053253 -156.50146484 3.62695312 C-155.28980652 3.59915268 -154.07814819 3.57135223 -152.82977295 3.54270935 C-150.18393542 3.48269479 -147.53812805 3.42447278 -144.89219284 3.36924744 C-140.6850631 3.28139796 -136.47810625 3.18663677 -132.27114868 3.09094238 C-125.58733479 2.93972114 -118.9034297 2.79306767 -112.21947157 2.64837503 C-100.33272503 2.3910236 -88.44610014 2.12826585 -76.55958331 1.86051702 C-72.40298671 1.76709339 -68.24634295 1.67636372 -64.08964074 1.58777094 C-50.88968866 1.30490343 -37.69970345 0.97627033 -24.51207542 0.3245163 C-16.33873576 -0.07241986 -8.18086112 -0.09882919 0 0 Z " fill="#16488C" transform="translate(431,32)"/>
<path d="M0 0 C1.13066895 -0.0014502 2.26133789 -0.00290039 3.42626953 -0.00439453 C9.48651975 0.07645726 14.76607247 0.59928916 20.5625 2.375 C21.53574219 2.66117187 22.50898438 2.94734375 23.51171875 3.2421875 C30.00737701 5.63288626 34.7700702 8.86071479 39.8125 13.5 C40.38572998 14.02706543 40.95895996 14.55413086 41.54956055 15.09716797 C42.95634431 16.45495067 44.26823968 17.90956332 45.5625 19.375 C45.5625 20.365 45.5625 21.355 45.5625 22.375 C46.2225 22.375 46.8825 22.375 47.5625 22.375 C48.35925015 24.22698794 49.14964361 26.0817111 49.9375 27.9375 C50.37835938 28.97003906 50.81921875 30.00257813 51.2734375 31.06640625 C58.98465864 50.85854052 55.15821789 73.4765245 46.81640625 92.46875 C40.03859295 107.01805211 30.10260313 121.44211533 16.5625 130.375 C15.9025 130.375 15.2425 130.375 14.5625 130.375 C14.5625 131.035 14.5625 131.695 14.5625 132.375 C4.95536585 137.08652476 -4.69021826 141.1655501 -14.84423828 144.54785156 C-16.94371516 145.25208477 -19.03186188 145.98476151 -21.12109375 146.71875 C-30.31504209 149.85678974 -38.70289484 151.23598449 -48.4375 151.375 C-48.52052368 150.22499512 -48.52052368 150.22499512 -48.60522461 149.05175781 C-48.8582011 145.57589775 -49.11654042 142.10045646 -49.375 138.625 C-49.46201172 137.4184375 -49.54902344 136.211875 -49.63867188 134.96875 C-49.72568359 133.80859375 -49.81269531 132.6484375 -49.90234375 131.453125 C-50.02017212 129.85065918 -50.02017212 129.85065918 -50.14038086 128.21582031 C-50.35011767 125.51511499 -50.35011767 125.51511499 -50.92822266 123.50585938 C-51.73763115 120.11922594 -51.87797688 116.66738764 -52.12109375 113.203125 C-52.18088913 112.38456024 -52.24068451 111.56599548 -52.30229187 110.72262573 C-52.49751994 108.02370714 -52.68665001 105.32440677 -52.875 102.625 C-52.94064148 101.70104431 -53.00628296 100.77708862 -53.07391357 99.82513428 C-54.19011283 84.06784459 -55.07062444 68.30451604 -55.79077148 52.52441406 C-55.8628883 50.9563696 -55.93522841 49.3883354 -56.0078125 47.8203125 C-56.04208344 47.07702698 -56.07635437 46.33374146 -56.11166382 45.56793213 C-56.31632517 41.31880121 -56.60721539 37.0893646 -56.98828125 32.8515625 C-57.44372212 27.76170303 -57.55646113 22.73256068 -57.5 17.625 C-57.49548828 16.820625 -57.49097656 16.01625 -57.48632812 15.1875 C-57.47479518 13.24996596 -57.45687471 11.31247149 -57.4375 9.375 C-53.20324296 7.44128608 -49.58629847 6.01859981 -44.9375 5.4375 C-40.7265609 4.87636119 -36.59049952 4.22341156 -32.4296875 3.36328125 C-21.56592908 1.17278179 -11.09779352 0.00151258 0 0 Z " fill="#FBFDFB" transform="translate(179.4375,290.625)"/>
<path d="M0 0 C-1.43328616 9.74918408 -5.53070835 18.40392239 -9.73046875 27.25 C-11.06126933 29.99960625 -11.06126933 29.99960625 -12 33 C-14.44105433 32.5479529 -16.11511886 31.92964958 -18.25 30.625 C-21.0840502 28.95033398 -23.82248101 27.85397327 -26.91015625 26.75 C-28.23899067 26.27310989 -29.56063297 25.77527864 -30.87109375 25.25 C-41.57148698 20.97874116 -54.84839898 16.92928129 -66.125 21.25 C-69.8169987 23.46108888 -69.8169987 23.46108888 -72 27 C-72.6556043 32.61946547 -71.80949646 36.28243941 -69.36328125 41.3359375 C-66.39242898 44.96225001 -61.16843737 45.50472863 -56.78125 46.4375 C-55.01201172 46.82035156 -55.01201172 46.82035156 -53.20703125 47.2109375 C-51.98371094 47.47132813 -50.76039063 47.73171875 -49.5 48 C-47.07205503 48.51680178 -44.64493326 49.03748985 -42.21875 49.5625 C-40.6090332 49.90474609 -40.6090332 49.90474609 -38.96679688 50.25390625 C-26.09992516 53.48968307 -13.15610418 61.72597107 -3 70 C-2.38640625 70.47695313 -1.7728125 70.95390625 -1.140625 71.4453125 C4.38660618 76.23375536 6.4783026 82.90627246 7.3828125 90.00390625 C7.94301069 104.92385148 3.77055638 119.81946363 -5.9375 131.2890625 C-7.56468217 132.99082385 -9.11610889 134.58832434 -11 136 C-11.66 136 -12.32 136 -13 136 C-13 136.66 -13 137.32 -13 138 C-14.72850345 138.79311367 -16.45783354 139.5844259 -18.1875 140.375 C-19.15042969 140.81585938 -20.11335938 141.25671875 -21.10546875 141.7109375 C-22.06066406 142.13632812 -23.01585937 142.56171875 -24 143 C-24.80179687 143.3609375 -25.60359375 143.721875 -26.4296875 144.09375 C-43.7020079 150.18368668 -65.89763588 148.48700849 -83 143 C-84.33304234 142.59799214 -85.66637963 142.19696111 -87 141.796875 C-93.40296358 139.82098198 -99.35097152 137.56847908 -105.10546875 134.109375 C-107.30522666 132.82126934 -109.61121573 131.91347154 -111.96484375 130.9453125 C-116.82551346 128.6875734 -121.59797353 126.05503414 -126 123 C-127 120 -127 120 -125.41796875 116.34765625 C-124.68454122 114.91407831 -123.94058765 113.4858484 -123.1875 112.0625 C-122.81818359 111.34642578 -122.44886719 110.63035156 -122.06835938 109.89257812 C-121.37587181 108.55111658 -120.67929152 107.2117541 -119.97729492 105.87524414 C-118.96230386 103.92766823 -117.97724653 101.96674609 -117 100 C-116.34 100 -115.68 100 -115 100 C-114.9175 99.34 -114.835 98.68 -114.75 98 C-113.75240209 94.00960837 -111.92833317 90.61450357 -110 87 C-106.41209425 87.29899215 -105.21833224 87.76986601 -102.6875 90.4375 C-101 93 -101 93 -101 95 C-100.45859375 95.10570312 -99.9171875 95.21140625 -99.359375 95.3203125 C-96.43428612 96.16297055 -93.94955318 97.46927412 -91.25 98.875 C-84.15497028 102.46993 -77.95177262 104.96921466 -70 106 C-69.05125 106.350625 -68.1025 106.70125 -67.125 107.0625 C-61.58531156 108.72440653 -56.79372908 108.50822324 -51.25 106.9375 C-47.17043547 104.50545192 -44.72355253 102.48428712 -43 98 C-42.21497591 92.40842493 -41.62355399 87.17859255 -44.72265625 82.2734375 C-47.05881008 79.9412908 -49.02479883 78.64689323 -52 77.25 C-52.845625 76.84265625 -53.69125 76.4353125 -54.5625 76.015625 C-56.71078346 75.12050689 -58.72895601 74.48364826 -61 74 C-61 73.34 -61 72.68 -61 72 C-62.22009766 72.10441406 -62.22009766 72.10441406 -63.46484375 72.2109375 C-77.13539356 72.85679025 -89.27958115 68.7202402 -100.3125 60.61328125 C-102 59 -102 59 -103 56 C-103.95229492 55.53436646 -103.95229492 55.53436646 -104.92382812 55.05932617 C-108.19884056 53.388315 -108.87082933 50.90403964 -110.21484375 47.60791016 C-111.56043208 43.13851508 -111.59315677 38.82517461 -111.5 34.1875 C-111.48718994 33.21844727 -111.47437988 32.24939453 -111.46118164 31.25097656 C-111.10071355 18.49660991 -107.25489575 8.13927988 -98.0390625 -0.9296875 C-69.09011664 -25.1434898 -28.5855134 -21.7847046 0 0 Z " fill="#FDFDFA" transform="translate(405,302)"/>
<path d="M0 0 C1.45927364 0.09004029 2.91743083 0.19813688 4.375 0.3125 C5.59316406 0.39951172 5.59316406 0.39951172 6.8359375 0.48828125 C10.43374496 1.07014888 13.76350495 2.07629239 17.23974609 3.15551758 C22.00314831 4.6128507 26.81673615 5.88753548 31.625 7.1875 C32.62917969 7.46013672 33.63335937 7.73277344 34.66796875 8.01367188 C37.11166221 8.6769601 39.55567317 9.33905043 42 10 C40.92985886 13.49383979 39.96605673 16.44018256 37.6875 19.3125 C35.73681327 21.90771188 34.1034781 24.51673418 32.5625 27.375 C30.46975212 31.24559953 28.14358924 34.86258814 25.625 38.46875 C24.20932144 40.6739416 22.94365148 42.88990664 21.6875 45.1875 C18.5345254 50.92232655 14.99786312 56.39164951 11.4609375 61.89453125 C8.10055986 67.15912289 4.96778636 72.50434252 2 78 C2.60932373 78.12689209 3.21864746 78.25378418 3.84643555 78.38452148 C6.84528278 79.24157781 8.6326627 80.99630898 11 83 C12.55426721 84.15697611 14.11731848 85.30221578 15.6875 86.4375 C16.64398438 87.12972656 17.60046875 87.82195312 18.5859375 88.53515625 C19.12186523 88.92203613 19.65779297 89.30891602 20.20996094 89.70751953 C22.2165807 91.15638001 24.22158099 92.60746712 26.2265625 94.05859375 C33.45147772 99.28506193 40.68346796 104.50149918 47.9375 109.6875 C48.79661987 110.30214111 48.79661987 110.30214111 49.6730957 110.92919922 C52.093567 112.65679173 54.52531922 114.35021281 57 116 C57.85402772 121.4413766 55.78321016 125.43899735 53.4375 130.1875 C53.07615967 130.93491455 52.71481934 131.6823291 52.3425293 132.45239258 C48.14865641 140.96950525 43.33223136 148.90022544 37 156 C33.612801 154.5611898 31.6405896 152.77880501 29.25 150 C28.63640625 149.29875 28.0228125 148.5975 27.390625 147.875 C26 146 26 146 26 144 C25.01 143.67 24.02 143.34 23 143 C21.31640625 141.29296875 21.31640625 141.29296875 19.5625 139.1875 C17.62032666 136.88734132 15.7217084 134.72884408 13.5625 132.625 C12 131 12 131 12 129 C11.4328125 128.76925781 10.865625 128.53851563 10.28125 128.30078125 C7.41536876 126.66664006 5.67086998 124.66690116 3.5 122.1875 C2.7471875 121.33542969 1.994375 120.48335938 1.21875 119.60546875 C-0.21023636 117.92741611 -1.60906313 116.22296113 -2.96875 114.48828125 C-5.16033897 111.80358476 -7.53518361 109.43534176 -10 107 C-11.96022229 104.916468 -13.88706595 102.80316385 -15.8125 100.6875 C-16.31458984 100.13771484 -16.81667969 99.58792969 -17.33398438 99.02148438 C-18.55703968 97.68194761 -19.77867008 96.34111008 -21 95 C-19.6034647 103.33379602 -17.97075933 111.50232988 -15.625 119.625 C-13.60376661 126.64347312 -11.82232409 133.69378719 -10.1875 140.8125 C-9.96852051 141.74980957 -9.74954102 142.68711914 -9.52392578 143.65283203 C-9.32395996 144.53696777 -9.12399414 145.42110352 -8.91796875 146.33203125 C-8.74031982 147.11296143 -8.5626709 147.8938916 -8.37963867 148.69848633 C-7.97203721 151.16952106 -7.93504688 153.49999575 -8 156 C-20.25131103 159.68289849 -32.35978036 162.96183163 -45 165 C-46.91475945 157.54370143 -48.76770694 150.08028805 -50.4609375 142.5703125 C-50.71536621 141.44544434 -50.96979492 140.32057617 -51.23193359 139.16162109 C-51.73228169 136.93915946 -52.2276522 134.7155695 -52.71728516 132.49072266 C-54.37329002 125.14704277 -56.53855622 118.10984462 -59 111 C-59.85501851 108.36041921 -60.67695204 105.71238077 -61.5 103.0625 C-61.71156738 102.38558105 -61.92313477 101.70866211 -62.14111328 101.01123047 C-63.10478873 97.92122366 -64.05019402 94.82880982 -64.9609375 91.72265625 C-67.54150186 82.97741037 -70.80625016 74.5677597 -74.17138672 66.10253906 C-75.31314121 63.20542955 -76.40424908 60.28976977 -77.5 57.375 C-79.65512008 51.74457037 -82.03774316 46.23054715 -84.50195312 40.72998047 C-86.51632804 36.21152914 -88.29842532 31.64581452 -90 27 C-84.52516462 23.98325397 -79.01869194 21.91813841 -73.06982422 20.00390625 C-67.51551054 18.20680155 -62.06551406 16.18590112 -56.63085938 14.05517578 C-52.13441942 12.32280648 -47.68186731 11.09399114 -43 10 C-40.35293958 18.05231739 -37.84838834 25.90119024 -36.52734375 34.29296875 C-35.91156851 37.4539483 -34.98356697 40.43400918 -34 43.5 C-31.63905315 50.89998268 -29.8327728 58.19606422 -30 66 C-27.36557557 64.68278778 -27.32194226 63.67349962 -26.3125 60.9375 C-24.50770895 56.22611662 -22.54165227 51.61182119 -20.5 47 C-18.57095216 42.63052943 -16.67289375 38.26353083 -14.9375 33.8125 C-13.00582643 28.88425588 -10.76046536 24.11811578 -8.51953125 19.32421875 C-6.59444212 15.11277697 -4.82373918 10.84698592 -3.078125 6.55859375 C-2.13424637 4.31859192 -1.11695281 2.15774974 0 0 Z " fill="#FDFBFC" transform="translate(174,69)"/>
<path d="M0 0 C6.55862955 0.6894014 12.68913782 2.50797231 19 4.375 C20.05445313 4.67921875 21.10890625 4.9834375 22.1953125 5.296875 C30.79100299 7.81741582 30.79100299 7.81741582 34.7890625 9.6015625 C39.41072683 11.61440414 44.20860637 12.70533213 49.0859375 13.9375 C50.04757812 14.288125 51.00921875 14.63875 52 15 C53.17284318 18.51852955 52.7594127 19.63069646 51.7421875 23.12890625 C51.30193237 24.66840942 51.30193237 24.66840942 50.8527832 26.23901367 C50.53011475 27.33576416 50.20744629 28.43251465 49.875 29.5625 C49.21984709 31.8410869 48.56490041 34.11973311 47.91015625 36.3984375 C47.58418457 37.52217773 47.25821289 38.64591797 46.92236328 39.80371094 C45.68566929 44.08925824 44.49590948 48.38700231 43.3125 52.6875 C41.56046897 59.01274866 39.77661119 65.32827548 37.96484375 71.63671875 C37.30701611 73.92979405 36.65354983 76.22412393 36.00390625 78.51953125 C33.48985367 87.39208256 30.91665321 96.25004037 28 105 C22.2292587 105.19386589 17.37623073 104.59411498 11.8125 103.125 C5.38558557 101.51064985 -0.9827396 100.27515252 -7.55859375 99.39453125 C-10 99 -10 99 -12 98 C-11.06069256 87.97738976 -10.0809435 78.02111664 -8.43359375 68.0859375 C-7.79866807 63.56709705 -7.56173419 59.0402446 -7.34375 54.484375 C-7.07729016 51.78344113 -6.67308707 49.44776617 -6.04321289 46.83203125 C-5.01662769 42.3033811 -4.42227933 37.81973055 -3.96484375 33.203125 C-3.88126114 32.40646423 -3.79767853 31.60980347 -3.71156311 30.78900146 C-3.44862892 28.27648156 -3.19260475 25.76332586 -2.9375 23.25 C-2.67780699 20.72251423 -2.4165848 18.19520612 -2.15272522 15.66815186 C-1.989785 14.10466454 -1.82936321 12.54091203 -1.67185974 10.97686768 C-1.28846983 7.26900669 -0.81394538 3.63923623 0 0 Z " fill="#FBFCFD" transform="translate(309,119)"/>
<path d="M0 0 C1.12184692 -0.01063477 1.12184692 -0.01063477 2.26635742 -0.02148438 C7.98518525 0.1651705 11.85216952 1.87308825 16.8125 4.6875 C16.8125 5.3475 16.8125 6.0075 16.8125 6.6875 C17.39 6.914375 17.9675 7.14125 18.5625 7.375 C21.43384674 9.04995226 22.87404077 10.99866946 24.8125 13.6875 C25.59753906 14.72390625 25.59753906 14.72390625 26.3984375 15.78125 C29.85464626 22.88461827 29.16273285 33.56261282 26.74609375 40.9453125 C22.49874145 48.51416373 15.69161373 53.33264622 7.8125 56.6875 C-0.42817421 57.68392139 -8.34335384 57.74964497 -15.1875 52.6875 C-15.78820312 52.26339844 -16.38890625 51.83929688 -17.0078125 51.40234375 C-22.91850386 46.80940393 -27.67561972 41.62729984 -28.6640625 34.01953125 C-28.81192314 27.21122094 -28.67810683 21.58542189 -25.1875 15.6875 C-24.88199219 15.04683594 -24.57648438 14.40617187 -24.26171875 13.74609375 C-19.13191056 3.91551588 -10.69680184 0.07908099 0 0 Z " fill="#F4F8FA" transform="translate(341.1875,57.3125)"/>
<path d="M0 0 C2.625 2.3125 2.625 2.3125 5 5 C5.86625 5.825 6.7325 6.65 7.625 7.5 C14.65002646 16.27574283 14.11810754 31.29290495 13 42 C11.66299321 48.48186136 9.80153593 54.52219626 6 60 C5.34 60 4.68 60 4 60 C3.74992187 60.59039062 3.49984375 61.18078125 3.2421875 61.7890625 C-1.00813708 69.35410562 -11.30578584 73.84606537 -19 77 C-19.99 77 -20.98 77 -22 77 C-22.7023846 71.19512088 -23.2014749 65.42254305 -23.46484375 59.58203125 C-23.5423078 57.99177218 -23.61995111 56.40152183 -23.69775391 54.8112793 C-23.73684875 53.99396332 -23.7759436 53.17664734 -23.81622314 52.33456421 C-24.42092706 39.75918784 -25.06233096 27.20904586 -26.39038086 14.68481445 C-26.93773199 9.42572364 -27.07368191 4.28930841 -27 -1 C-18.04164891 -3.75641572 -8.33657428 -4.9338909 0 0 Z " fill="#31B24C" transform="translate(182,326)"/>
<path d="M0 0 C0.75990234 -0.01546875 1.51980469 -0.0309375 2.30273438 -0.046875 C8.17622643 -0.00674867 11.98068627 1.58619554 17.0625 4.5 C17.0625 5.16 17.0625 5.82 17.0625 6.5 C17.64 6.726875 18.2175 6.95375 18.8125 7.1875 C22.60614023 9.4004568 24.66305388 12.90083082 27.0625 16.5 C27.1875 19.6875 27.1875 19.6875 27.0625 22.5 C21.6235835 22.71755666 17.19169186 22.60428384 12.0625 20.5 C12.0625 21.16 12.0625 21.82 12.0625 22.5 C10.32701831 23.94526736 8.52274037 25.3087222 6.6875 26.625 C5.68976563 27.34945312 4.69203125 28.07390625 3.6640625 28.8203125 C1.0625 30.5 1.0625 30.5 -0.9375 30.5 C-1.77930969 29.0210311 -2.61335879 27.53690799 -3.40039062 26.02807617 C-6.57277574 20.01928824 -6.57277574 20.01928824 -11.91015625 15.96875 C-14.60186816 15.27411467 -17.17159016 14.75930405 -19.9375 14.5 C-18.90709782 8.88899178 -17.7144163 5.73226762 -12.87890625 2.37890625 C-8.60889118 0.03271383 -4.79215412 -0.09705629 0 0 Z " fill="#F7F9FB" transform="translate(340.9375,57.5)"/>
<path d="M0 0 C1.39664108 0.11562606 2.79231199 0.242992 4.1875 0.375 C4.96480469 0.44460937 5.74210937 0.51421875 6.54296875 0.5859375 C10.83216016 1.30875831 13.24599417 2.05494047 16.01953125 5.53125 C16.61121094 6.5109375 17.20289063 7.490625 17.8125 8.5 C18.41707031 9.4796875 19.02164062 10.459375 19.64453125 11.46875 C21 14 21 14 21 16 C21.77085937 15.4225 22.54171875 14.845 23.3359375 14.25 C24.33882813 13.5075 25.34171875 12.765 26.375 12 C27.37273437 11.2575 28.37046875 10.515 29.3984375 9.75 C32 8 32 8 34 8 C34 7.34 34 6.68 34 6 C34.825 6.144375 35.65 6.28875 36.5 6.4375 C40.32686278 7.05253152 44.15216707 7.53560637 48 8 C48 8.66 48 9.32 48 10 C45.97267713 11.72337642 43.93529892 13.3388832 41.8125 14.9375 C37.88977789 17.93171349 34.01521227 20.93750636 30.31640625 24.20703125 C29.73721436 24.71693604 29.15802246 25.22684082 28.5612793 25.75219727 C27.45350318 26.73615651 26.35434362 27.72991966 25.26489258 28.73413086 C21.5681131 31.99704108 21.5681131 31.99704108 18.75 32.01171875 C16.10622565 30.4832867 15.3533775 28.06296788 14.125 25.37109375 C12.08081427 21.06268841 9.48702422 17.06356537 7 13 C5.8929925 11.18923368 4.78874292 9.3767779 3.6875 7.5625 C3.19636719 6.75941406 2.70523437 5.95632812 2.19921875 5.12890625 C1 3 1 3 0 0 Z " fill="#1D4B8A" transform="translate(319,72)"/>
<path d="M0 0 C0.33 0 0.66 0 1 0 C1.43144278 6.38603516 1.85817649 12.77237287 2.28173828 19.15893555 C2.42617815 21.32860326 2.57167008 23.49820122 2.71826172 25.66772461 C2.92957104 28.79783374 3.13701407 31.92817963 3.34375 35.05859375 C3.40937134 36.01833603 3.47499268 36.97807831 3.54260254 37.96690369 C3.9141067 43.65909619 4.06131009 49.29560696 4 55 C-10.09013982 55.06032066 -24.16383517 54.89142248 -38.25 54.5625 C-39.24110779 54.54010254 -40.23221558 54.51770508 -41.25335693 54.49462891 C-52.77592765 54.23326311 -64.28895326 53.91903733 -75.80200195 53.37304688 C-85.34353015 52.94096513 -94.88896178 52.76391676 -104.4375 52.5625 C-131.30088952 51.99472866 -158.1494616 50.99116173 -185 50 C-185 49.67 -185 49.34 -185 49 C-175.12537698 48.97686201 -165.25076037 48.95907745 -155.3761158 48.94818783 C-150.79126149 48.9429622 -146.20642569 48.93587033 -141.62158203 48.92456055 C-137.19958183 48.91372033 -132.77759946 48.90772075 -128.35558701 48.90512276 C-126.66583856 48.90327056 -124.97609113 48.89965386 -123.28635025 48.89426994 C-120.92541622 48.88704449 -118.56455653 48.8860097 -116.20361328 48.88647461 C-115.14841492 48.8810817 -115.14841492 48.8810817 -114.07189941 48.87557983 C-109.22810432 48.88594784 -109.22810432 48.88594784 -107 50 C-104.55358709 50.13511999 -102.13199024 50.2110461 -99.68359375 50.24609375 C-98.90776947 50.26145172 -98.13194519 50.27680969 -97.33261108 50.29263306 C-95.61481272 50.32653794 -93.89697435 50.3584568 -92.17910767 50.38870239 C-87.39259411 50.47389708 -82.60646224 50.57626054 -77.8203125 50.6796875 C-76.23646507 50.71374443 -76.23646507 50.71374443 -74.62062073 50.74848938 C-60.09166229 51.072304 -45.56662769 51.53747521 -31.04130936 51.99266434 C-28.80479729 52.06274135 -26.56827791 52.1325808 -24.33175659 52.20236206 C-15.88776542 52.46596632 -7.44384541 52.73176209 1 53 C0.9550515 51.83963226 0.9550515 51.83963226 0.90919495 50.65582275 C-0.1662203 22.60602824 -0.1662203 22.60602824 -0.0625 10.75 C-0.05798828 9.68394531 -0.05347656 8.61789062 -0.04882812 7.51953125 C-0.03753719 5.01294454 -0.02149387 2.50651577 0 0 Z " fill="#E9D35D" transform="translate(448,436)"/>
<path d="M0 0 C0.8863916 0.00451172 1.7727832 0.00902344 2.68603516 0.01367188 C3.35425293 0.01947266 4.0224707 0.02527344 4.7109375 0.03125 C6.09193754 40.43983745 7.03140627 80.85379021 7.76914215 121.2789917 C7.83470543 124.83934356 7.90215679 128.39965481 7.97015381 131.95996094 C8.61631182 165.98664594 8.83027684 199.99866178 8.7109375 234.03125 C8.3809375 234.03125 8.0509375 234.03125 7.7109375 234.03125 C7.68588135 232.96914307 7.6608252 231.90703613 7.63500977 230.81274414 C7.53919385 226.78499919 7.43943541 222.75735906 7.33862305 218.72973633 C7.2959193 217.00287364 7.25421537 215.27598587 7.21362305 213.54907227 C7.15431426 211.03394052 7.09112846 208.51892805 7.02734375 206.00390625 C7.01063126 205.26044449 6.99391876 204.51698273 6.97669983 203.75099182 C6.85963374 199.29317072 6.64010689 194.85282886 6.34565639 190.40297318 C5.68283097 180.20949585 5.52064811 170.03662596 5.45057678 159.82361794 C5.42916178 156.72470494 5.40218877 153.62588079 5.37390137 150.52702332 C5.30485121 142.84830329 5.24456033 135.16952037 5.18487549 127.49072266 C5.13385798 120.95905482 5.07907592 114.42744078 5.01905823 107.89584923 C4.99261764 104.85032647 4.97174094 101.804798 4.9510498 98.75923157 C4.93444768 96.89392852 4.91757591 95.02862784 4.90039062 93.16333008 C4.89620621 92.32328934 4.89202179 91.4832486 4.88771057 90.61775208 C4.84167998 86.29793206 4.43618825 82.29791061 3.7109375 78.03125 C3.62538326 75.43822168 3.58406965 72.87370757 3.59741211 70.28173828 C3.59726608 69.52983719 3.59712006 68.7779361 3.5969696 68.00325012 C3.59766222 65.53599082 3.60542392 63.0688085 3.61328125 60.6015625 C3.61514775 58.88377931 3.61657056 57.16599558 3.61756897 55.44821167 C3.62137591 50.94045527 3.63119054 46.4327314 3.64227295 41.92498779 C3.65252635 37.319788 3.65707499 32.71458293 3.66210938 28.109375 C3.67281452 19.08331909 3.68986894 10.05728726 3.7109375 1.03125 C1.81601563 1.27572876 1.81601563 1.27572876 -0.1171875 1.52514648 C-3.19717384 1.92251972 -6.1787459 2.1423487 -9.2890625 2.09375 C-10.0521875 2.08472656 -10.8153125 2.07570312 -11.6015625 2.06640625 C-12.436875 2.04900391 -12.436875 2.04900391 -13.2890625 2.03125 C-13.2890625 1.70125 -13.2890625 1.37125 -13.2890625 1.03125 C-8.81302465 0.36813328 -4.52786078 -0.03003556 0 0 Z " fill="#53AD36" transform="translate(253.2890625,251.96875)"/>
<path d="M0 0 C0.33 0 0.66 0 1 0 C2.09842319 20.00699377 2.10871056 39.97049808 2 60 C-9.40793916 61.43787409 -20.49761053 62.28207495 -32 62 C-32 62.66 -32 63.32 -32 64 C-33.02154175 64.03758423 -33.02154175 64.03758423 -34.0637207 64.07592773 C-37.14683755 64.19190952 -40.22965046 64.31462616 -43.3125 64.4375 C-44.38435547 64.47681641 -45.45621094 64.51613281 -46.56054688 64.55664062 C-47.58857422 64.59853516 -48.61660156 64.64042969 -49.67578125 64.68359375 C-50.62364502 64.72025146 -51.57150879 64.75690918 -52.5480957 64.79467773 C-55.136171 64.91430187 -55.136171 64.91430187 -58 66 C-61.3201792 66.30805786 -64.6410341 66.50889404 -67.96875 66.71875 C-71.0434509 66.88824496 -71.0434509 66.88824496 -74 68 C-75.58074837 68.19055933 -77.16655259 68.34080091 -78.75390625 68.46484375 C-79.69169922 68.54283203 -80.62949219 68.62082031 -81.59570312 68.70117188 C-83.54608793 68.85653498 -85.49660645 69.01023002 -87.44726562 69.16210938 C-91.88092443 69.53334153 -96.1740764 69.97917957 -100.515625 70.96484375 C-107.78236067 72.51514802 -115.20976822 72.8825594 -122.60522461 73.43261719 C-125.19246358 73.62536979 -127.77883497 73.82756952 -130.36523438 74.03125 C-132.02860345 74.15940547 -133.69201368 74.28702814 -135.35546875 74.4140625 C-136.50102486 74.50308334 -136.50102486 74.50308334 -137.66972351 74.59390259 C-142.1274668 74.92215984 -146.53014128 75.05530634 -151 75 C-147.77595865 73.11934887 -145.17197933 72.67014341 -141.46484375 72.4375 C-139.88026367 72.32535156 -139.88026367 72.32535156 -138.26367188 72.2109375 C-136.04233334 72.07006577 -133.82097909 71.92944163 -131.59960938 71.7890625 C-130.01696289 71.67691406 -130.01696289 71.67691406 -128.40234375 71.5625 C-127.43804443 71.50191406 -126.47374512 71.44132812 -125.48022461 71.37890625 C-122.75390265 71.14120619 -122.75390265 71.14120619 -120 69 C-117.76342773 68.69702148 -117.76342773 68.69702148 -115.18359375 68.62109375 C-114.25482422 68.58693359 -113.32605469 68.55277344 -112.36914062 68.51757812 C-111.40169922 68.49115234 -110.43425781 68.46472656 -109.4375 68.4375 C-107.51940296 68.37767879 -105.60141931 68.31406394 -103.68359375 68.24609375 C-102.40826782 68.21020142 -102.40826782 68.21020142 -101.10717773 68.17358398 C-98.94376363 68.12699513 -98.94376363 68.12699513 -97 67 C-94.37327928 66.61706122 -91.76256953 66.28709187 -89.125 66 C-88.33867187 65.91242432 -87.55234375 65.82484863 -86.7421875 65.73461914 C-79.63187136 64.98487767 -72.51912646 64.60229047 -65.37548828 64.34179688 C-61.05058968 64.2961488 -61.05058968 64.2961488 -57 63 C-55.61186238 62.86098919 -54.21817395 62.77477642 -52.82421875 62.71875 C-51.58188477 62.66267578 -51.58188477 62.66267578 -50.31445312 62.60546875 C-49.01411133 62.55326172 -49.01411133 62.55326172 -47.6875 62.5 C-42.68025659 62.29623878 -37.91027893 62.05719529 -33 61 C-31.39696373 60.93628632 -29.79162328 60.91355786 -28.1875 60.9375 C-27.00220703 60.95103516 -27.00220703 60.95103516 -25.79296875 60.96484375 C-24.90544922 60.98224609 -24.90544922 60.98224609 -24 61 C-24 60.34 -24 59.68 -24 59 C-23.37955811 58.97494385 -22.75911621 58.9498877 -22.11987305 58.92407227 C-19.30887603 58.80803279 -16.49820759 58.68534241 -13.6875 58.5625 C-12.22280273 58.50352539 -12.22280273 58.50352539 -10.72851562 58.44335938 C-9.79072266 58.40146484 -8.85292969 58.35957031 -7.88671875 58.31640625 C-7.02264404 58.27974854 -6.15856934 58.24309082 -5.26831055 58.20532227 C-2.8352174 58.07252646 -2.8352174 58.07252646 0 57 C0 38.19 0 19.38 0 0 Z " fill="#896A7C" transform="translate(256,192)"/>
<path d="M0 0 C0.495 1.485 0.495 1.485 1 3 C10.24 3 19.48 3 29 3 C29 5.97 29 8.94 29 12 C28.01 11.505 28.01 11.505 27 11 C27 9.02 27 7.04 27 5 C26.29700272 5.00222061 25.59400543 5.00444122 24.8697052 5.00672913 C18.23428495 5.02679271 11.59887322 5.04200506 4.96342945 5.05181217 C1.55234797 5.05702364 -1.85870837 5.06408968 -5.26977539 5.07543945 C-9.19417008 5.08841505 -13.11855471 5.09324258 -17.04296875 5.09765625 C-18.87446724 5.10539818 -18.87446724 5.10539818 -20.7429657 5.11329651 C-21.8837709 5.11337204 -23.02457611 5.11344757 -24.19995117 5.11352539 C-25.20144699 5.115746 -26.20294281 5.11796661 -27.23478699 5.12025452 C-30 5 -30 5 -32.46777344 4.50474548 C-35.45756392 3.90879437 -38.26705891 3.84521382 -41.31567383 3.81054688 C-42.57080276 3.79382935 -43.8259317 3.77711182 -45.11909485 3.7598877 C-46.11779319 3.74986473 -46.11779319 3.74986473 -47.13666725 3.73963928 C-49.23545054 3.71846326 -51.33408902 3.69145085 -53.43278503 3.66296387 C-57.89263309 3.60346853 -62.35255073 3.55126102 -66.8125 3.5 C-71.9737422 3.44052488 -77.13491344 3.37798937 -82.29602623 3.30812073 C-84.35201559 3.2817944 -86.40801318 3.26082857 -88.46406555 3.2401123 C-94.72453048 3.15735039 -100.81048695 2.96721849 -107 2 C-107 1.67 -107 1.34 -107 1 C-71.26690026 0.74911964 -35.6946057 1.1114231 0 3 C0 2.01 0 1.02 0 0 Z " fill="#D8C549" transform="translate(411,252)"/>
<path d="M0 0 C14.33856102 -0.02477623 28.67398187 0.03118241 43.01171875 0.18359375 C43.94867899 0.19337816 44.88563923 0.20316257 45.8509922 0.21324348 C50.7850358 0.26489494 55.71906135 0.3179868 60.65307617 0.37231445 C65.70704851 0.42765777 70.76105939 0.47773958 75.81509686 0.52671719 C79.75042584 0.56582567 83.68570506 0.6088613 87.62098122 0.65294075 C89.48469325 0.67314003 91.34842168 0.69188633 93.21216393 0.70907402 C102.53105973 0.79628401 111.7262455 0.99837028 121 2 C122.92862257 2.11356891 124.85832856 2.21233449 126.7890625 2.28125 C128.23152344 2.33732422 128.23152344 2.33732422 129.703125 2.39453125 C131.65884402 2.46512539 133.61457331 2.53543565 135.5703125 2.60546875 C141.42614298 2.83372021 147.18338081 3.28041824 153 4 C153 4.33 153 4.66 153 5 C148.93751676 5.03005137 144.87506321 5.04713644 140.8125 5.0625 C139.70068359 5.07087891 138.58886719 5.07925781 137.44335938 5.08789062 C130.47285882 5.10741584 123.55975415 4.89978342 116.6015625 4.5234375 C107.61200253 4.04882371 98.62978331 3.85797656 89.62890625 3.75390625 C88.94770596 3.74590752 88.26650566 3.73790878 87.56466293 3.72966766 C84.02405205 3.68860233 80.4834212 3.64960527 76.94277954 3.61129761 C51.25751089 3.32959891 25.63337903 2.77289151 0 1 C0 0.67 0 0.34 0 0 Z " fill="#445D58" transform="translate(258,250)"/>
<path d="M0 0 C8.97473067 -0.0604472 17.91007136 0.08381134 26.875 0.5 C27.95652344 0.54769531 29.03804688 0.59539062 30.15234375 0.64453125 C32.76836466 0.76028439 35.38422745 0.87878599 38 1 C38 1.33 38 1.66 38 2 C26.12 2 14.24 2 2 2 C2.16371094 6.73988281 2.32742188 11.47976563 2.49609375 16.36328125 C3.18696202 38.87483079 3.11562051 61.3853901 3.06866455 83.9052124 C3.05822294 89.46479904 3.05382349 95.02439065 3.04882812 100.58398438 C3.03827275 111.3893354 3.0213289 122.19466522 3 133 C2.67 133 2.34 133 2 133 C1.98969254 132.28702759 1.97938507 131.57405518 1.96876526 130.83947754 C1.83651376 121.72627011 1.70052567 112.61312146 1.5625 103.5 C1.55147877 102.7698254 1.54045753 102.0396508 1.52910233 101.2873497 C1.25446598 83.12638347 0.94323218 64.96879512 0.4375 46.8125 C0.00280776 31.20371728 -0.12222972 15.61531714 0 0 Z " fill="#C1C834" transform="translate(258,251)"/>
<path d="M0 0 C0.33 0 0.66 0 1 0 C2.09708472 9.9350075 2.31857145 19.87444031 2.55224609 29.85693359 C2.60371368 32.00110156 2.66094153 34.14505761 2.71875 36.2890625 C2.74904297 37.55443848 2.77933594 38.81981445 2.81054688 40.12353516 C2.67576143 42.89546357 2.67576143 42.89546357 4 44 C4.09439978 46.26991887 4.11742226 48.54281967 4.11352539 50.81469727 C4.11367142 51.52685394 4.11381744 52.23901062 4.1139679 52.9727478 C4.1132687 55.33733112 4.10547606 57.70183661 4.09765625 60.06640625 C4.09579209 61.70165463 4.09436818 63.33690357 4.09336853 64.97215271 C4.08954318 69.28434785 4.07971275 73.59650952 4.06866455 77.90869141 C4.0584508 82.30565946 4.05387099 86.70263289 4.04882812 91.09960938 C4.03809049 99.73308831 4.02101387 108.36654 4 117 C3.67 117 3.34 117 3 117 C0.98816823 61.39580911 0.98816823 61.39580911 0.375 34.875 C0.35462677 34.01764252 0.33425354 33.16028503 0.31326294 32.27694702 C0.06087006 21.51578485 -0.05003178 10.76424505 0 0 Z " fill="#374286" transform="translate(255,133)"/>
<path d="M0 0 C0.825 0.144375 1.65 0.28875 2.5 0.4375 C6.32686278 1.05253152 10.15216707 1.53560637 14 2 C14 2.66 14 3.32 14 4 C11.78724901 5.91692867 9.56850904 7.71971628 7.25 9.5 C6.61578125 9.99886719 5.9815625 10.49773437 5.328125 11.01171875 C2.30916092 13.35770542 -0.52931842 15.36249178 -4 17 C-4.33 16.01 -4.66 15.02 -5 14 C-4.34 14 -3.68 14 -3 14 C-3 13.01 -3 12.02 -3 11 C-5.31 10.34 -7.62 9.68 -10 9 C-6.87378374 5.60582235 -4.43458973 3.3937282 0 2 C0 1.34 0 0.68 0 0 Z " fill="#23508C" transform="translate(353,78)"/>
<path d="M0 0 C0.33 0 0.66 0 1 0 C2.20938809 14.93829129 2.2987539 29.8962715 2.5 44.875 C2.75506623 63.59733797 3.178064 82.29317927 4 101 C2.515 101.495 2.515 101.495 1 102 C0.25251111 67.99526423 -0.15207327 34.01294165 0 0 Z " fill="#BFCB30" transform="translate(261,384)"/>
<path d="M0 0 C-0.99 0.33 -1.98 0.66 -3 1 C-3.66 0.67 -4.32 0.34 -5 0 C-6.52148326 -0.08372659 -8.04655778 -0.10730027 -9.5703125 -0.09765625 C-10.91416016 -0.09282227 -10.91416016 -0.09282227 -12.28515625 -0.08789062 C-13.22230469 -0.07951172 -14.15945312 -0.07113281 -15.125 -0.0625 C-16.54232422 -0.05573242 -16.54232422 -0.05573242 -17.98828125 -0.04882812 C-20.3255477 -0.03702375 -22.66278169 -0.01908799 -25 0 C-24.67 4.95 -24.34 9.9 -24 15 C-23.67 15 -23.34 15 -23 15 C-22.71235721 22.07996664 -22.42786982 29.16005518 -22.14550781 36.24023438 C-22.04921818 38.64553657 -21.95222367 41.05081065 -21.85449219 43.45605469 C-21.71360989 46.92635954 -21.57531787 50.39675976 -21.4375 53.8671875 C-21.39375244 54.93113739 -21.35000488 55.99508728 -21.30493164 57.09127808 C-21.05741728 63.39822529 -20.94487119 69.68829873 -21 76 C-20.34 76.33 -19.68 76.66 -19 77 C-19.99 77 -20.98 77 -22 77 C-22.7023846 71.19512088 -23.2014749 65.42254305 -23.46484375 59.58203125 C-23.5423078 57.99177218 -23.61995111 56.40152183 -23.69775391 54.8112793 C-23.73684875 53.99396332 -23.7759436 53.17664734 -23.81622314 52.33456421 C-24.42092706 39.75918784 -25.06233096 27.20904586 -26.39038086 14.68481445 C-26.93773199 9.42572364 -27.07368191 4.28930841 -27 -1 C-17.85728043 -3.81314448 -8.60523494 -4.69376451 0 0 Z " fill="#59B46B" transform="translate(182,326)"/>
<path d="M0 0 C0.33 0 0.66 0 1 0 C1.03536362 0.83112808 1.07072723 1.66225616 1.10716248 2.51856995 C1.44353398 10.41654593 1.78164966 18.314445 2.12164211 26.21226597 C2.29630444 30.27094725 2.47033209 34.32965351 2.64282227 38.38842773 C2.80983716 42.3177813 2.97863275 46.24705495 3.14857674 50.17628288 C3.21256806 51.66267206 3.27595673 53.14908733 3.33868217 54.63553047 C3.7069448 63.35154952 4.1710263 72.05045278 4.79821777 80.75195312 C5.08189261 85.31820851 5.1115912 89.86446569 5.0625 94.4375 C5.05798828 95.27603516 5.05347656 96.11457031 5.04882812 96.97851562 C5.03735844 98.9857103 5.01944478 100.99286674 5 103 C4.34 103 3.68 103 3 103 C2.96241577 101.82026611 2.96241577 101.82026611 2.92407227 100.61669922 C2.80767134 97.03598506 2.68514513 93.4555055 2.5625 89.875 C2.52318359 88.6375 2.48386719 87.4 2.44335938 86.125 C2.40146484 84.92617188 2.35957031 83.72734375 2.31640625 82.4921875 C2.27974854 81.39245605 2.24309082 80.29272461 2.20532227 79.15966797 C2.06031183 76.04003607 2.06031183 76.04003607 1.5 73.15942383 C0.85498088 69.08364625 0.76718943 65.07759326 0.68359375 60.95703125 C0.65235413 59.64593384 0.65235413 59.64593384 0.6204834 58.30834961 C0.55473381 55.47648371 0.49576581 52.64452901 0.4375 49.8125 C0.39462858 47.87003546 0.35174115 45.92757126 0.30883789 43.98510742 C-0.00320719 29.32174804 -0.12958184 14.6666711 0 0 Z " fill="#EEDB74" transform="translate(440,265)"/>
<path d="M0 0 C0.33 0 0.66 0 1 0 C1.13462451 13.74665798 0.97561384 27.48579491 0.68161011 41.22927856 C0.64433904 43.01232233 0.60986239 44.79542705 0.57839966 46.57858276 C0.37489376 57.85429265 -0.34026308 68.8372453 -2 80 C-2.33 80 -2.66 80 -3 80 C-3.22590047 62.50487727 -3.0779469 45.09506396 -2.0625 27.625 C-2.01893372 26.86940796 -1.97536743 26.11381592 -1.93048096 25.33532715 C-1.43486835 16.87647221 -0.83965751 8.43273801 0 0 Z " fill="#6FC17E" transform="translate(83,329)"/>
<path d="M0 0 C0.29900074 13.45503311 -0.58336127 26.62105281 -2 40 C-2.99 39.505 -2.99 39.505 -4 39 C-4.16302953 31.07721751 -3.65078602 23.26778904 -3 15.375 C-2.67 11.29125 -2.34 7.2075 -2 3 C-14.54 2.67 -27.08 2.34 -40 2 C-40 1.67 -40 1.34 -40 1 C-26.65738241 0.33490333 -13.36004057 -0.16139646 0 0 Z " fill="#6B87AD" transform="translate(431,32)"/>
<path d="M0 0 C0.33 0 0.66 0 1 0 C1.18460242 19.3520136 0.64781816 38.66193872 0 58 C1.41513918 58.49269069 2.83218728 58.97990035 4.25 59.46484375 C5.43335937 59.87271118 5.43335937 59.87271118 6.640625 60.28881836 C8.79283564 60.93755487 10.7723855 61.3119509 13 61.5625 C13.99 61.706875 14.98 61.85125 16 62 C16.33 62.66 16.66 63.32 17 64 C9.86190062 63.61307499 3.67968693 62.54163018 -3 60 C-3.08252776 52.07799001 -2.86871355 44.23206517 -2.34375 36.328125 C-2.27716187 35.27969421 -2.21057373 34.23126343 -2.14196777 33.15106201 C-1.9315316 29.85046865 -1.71586309 26.5502424 -1.5 23.25 C-1.35512027 20.99220983 -1.21058598 18.73439747 -1.06640625 16.4765625 C-0.71492404 10.9841125 -0.35916251 5.49195284 0 0 Z " fill="#83C98E" transform="translate(79,410)"/>
<path d="M0 0 C4.92908146 3.87792288 8.5423711 7.76116833 12 13 C11.360625 13.94875 10.72125 14.8975 10.0625 15.875 C7.71423476 19.43297764 6.87046667 20.96893385 6.9375 25.125 C6.958125 26.40375 6.97875 27.6825 7 29 C6.67 29 6.34 29 6 29 C4.99657958 24.5424293 3.99784135 20.08382262 3 15.625 C2.71382812 14.35398438 2.42765625 13.08296875 2.1328125 11.7734375 C1.86210937 10.56171875 1.59140625 9.35 1.3125 8.1015625 C1.06113281 6.98088379 0.80976563 5.86020508 0.55078125 4.70556641 C0 2 0 2 0 0 Z " fill="#B15593" transform="translate(152,163)"/>
<path d="M0 0 C0.33 0 0.66 0 1 0 C1.65858306 2.4137835 2.30174906 4.83018673 2.9375 7.25 C3.11990234 7.91257812 3.30230469 8.57515625 3.49023438 9.2578125 C6.27642927 19.99732738 6.19729009 31.22185822 6.5625 42.25 C6.60568359 43.48363281 6.64886719 44.71726563 6.69335938 45.98828125 C6.79814405 48.99210867 6.9003154 51.99599975 7 55 C6.67 55 6.34 55 6 55 C5.13937983 48.29300855 4.28561044 41.58517018 3.43652344 34.87670898 C3.14707323 32.59623631 2.85607448 30.31595961 2.56347656 28.03588867 C2.14237486 24.75229798 1.72690773 21.46803513 1.3125 18.18359375 C1.18125732 17.16978134 1.05001465 16.15596893 0.91479492 15.11143494 C0.27907602 10.02848181 -0.15001888 5.12251952 0 0 Z " fill="#C383AD" transform="translate(47,56)"/>
<path d="M0 0 C0.33 0 0.66 0 1 0 C2.0985257 20.00886091 2.10015722 39.968557 2 60 C-6.58 60 -15.16 60 -24 60 C-24 59.67 -24 59.34 -24 59 C-23.37955811 58.97494385 -22.75911621 58.9498877 -22.11987305 58.92407227 C-19.30887603 58.80803279 -16.49820759 58.68534241 -13.6875 58.5625 C-12.71103516 58.52318359 -11.73457031 58.48386719 -10.72851562 58.44335938 C-9.79072266 58.40146484 -8.85292969 58.35957031 -7.88671875 58.31640625 C-7.02264404 58.27974854 -6.15856934 58.24309082 -5.26831055 58.20532227 C-2.8352174 58.07252646 -2.8352174 58.07252646 0 57 C0 38.19 0 19.38 0 0 Z " fill="#8B5498" transform="translate(256,192)"/>
<path d="M0 0 C1.02351563 0.00064453 2.04703125 0.00128906 3.1015625 0.00195312 C4.70644531 0.02612305 4.70644531 0.02612305 6.34375 0.05078125 C7.90222656 0.04594727 7.90222656 0.04594727 9.4921875 0.04101562 C19.04971911 0.10655979 28.00321193 0.8731077 36.53125 5.48828125 C37.54574219 6.02710938 38.56023437 6.5659375 39.60546875 7.12109375 C40.34410156 7.53101563 41.08273437 7.9409375 41.84375 8.36328125 C41.18375 8.69328125 40.52375 9.02328125 39.84375 9.36328125 C39.080625 8.95078125 38.3175 8.53828125 37.53125 8.11328125 C27.66233063 2.93898284 16.38465765 2.96167761 5.53125 3.17578125 C4.19337475 3.19088289 2.85548266 3.20456144 1.51757812 3.21679688 C-1.70747748 3.25172528 -4.93163148 3.30077001 -8.15625 3.36328125 C-5.65423484 0.22487045 -3.93971127 -0.01276886 0 0 Z " fill="#E7CD48" transform="translate(349.15625,282.63671875)"/>
<path d="M0 0 C3.57514662 1.30005332 6.70060508 2.99978177 9.97265625 4.92578125 C13.06064278 6.56199762 16.29877671 7.75497599 19.5703125 8.97265625 C22 10 22 10 24.28515625 11.453125 C27.81732915 13.46570121 31.42868394 14.5386679 35.3125 15.6875 C36.05306641 15.91244141 36.79363281 16.13738281 37.55664062 16.36914062 C39.36927951 16.91877951 41.18439889 17.4602267 43 18 C43 18.33 43 18.66 43 19 C36.81502506 18.58480492 31.70270576 17.37705739 26 15 C24.50201582 14.43215351 23.00205115 13.86949964 21.5 13.3125 C20.345 12.879375 19.19 12.44625 18 12 C18 11.34 18 10.68 18 10 C16.68 10 15.36 10 14 10 C14 9.34 14 8.68 14 8 C13.236875 7.855625 12.47375 7.71125 11.6875 7.5625 C9 7 9 7 6 6 C6 5.34 6 4.68 6 4 C4.68 4.33 3.36 4.66 2 5 C2 4.01 2 3.02 2 2 C1.34 2 0.68 2 0 2 C0 1.34 0 0.68 0 0 Z " fill="#E5CD40" transform="translate(282,427)"/>
<path d="M0 0 C0.33 0 0.66 0 1 0 C1.29849091 8.15875155 0.66003504 16.0888273 -0.21386719 24.18554688 C-1.12484756 32.77664293 -1.60402188 41.37184527 -2 50 C-2.33 50 -2.66 50 -3 50 C-4.50835898 27.81552025 -4.50835898 27.81552025 -3 19 C-2.67 18.67 -2.34 18.34 -2 18 C-1.77486899 16.66197814 -1.60639193 15.31426977 -1.46484375 13.96484375 C-1.37783203 13.15595703 -1.29082031 12.34707031 -1.20117188 11.51367188 C-1.11416016 10.66353516 -1.02714844 9.81339844 -0.9375 8.9375 C-0.84662109 8.08349609 -0.75574219 7.22949219 -0.66210938 6.34960938 C-0.43749278 4.23348465 -0.21824773 2.11679106 0 0 Z " fill="#5D7DA6" transform="translate(416,188)"/>
<path d="M0 0 C0 0.33 0 0.66 0 1 C-0.61294922 1.10546143 -1.22589844 1.21092285 -1.85742188 1.31958008 C-4.73849133 1.81600968 -7.61925588 2.31418606 -10.5 2.8125 C-11.54124023 2.99192139 -12.58248047 3.17134277 -13.65527344 3.35620117 C-18.44036431 4.18574947 -23.21983833 5.02760695 -27.984375 5.96875 C-29.07782227 6.18374146 -29.07782227 6.18374146 -30.19335938 6.40307617 C-32.13539479 6.78968507 -34.0755771 7.18556918 -36.015625 7.58203125 C-39 8 -39 8 -42 7 C-30.29432797 1.84950431 -30.29432797 1.84950431 -23.33203125 2.0625 C-20.50108567 1.98662876 -17.84755898 1.50959148 -15.0625 1 C-9.93277309 0.07443301 -5.20379728 -0.17345991 0 0 Z " fill="#4EB265" transform="translate(165,291)"/>
<path d="M0 0 C0.33 0 0.66 0 1 0 C1.720278 8.6947844 2.10640183 17.27504988 2 26 C10.415 25.01 10.415 25.01 19 24 C18.67 24.66 18.34 25.32 18 26 C15.56640625 26.5625 15.56640625 26.5625 12.5625 27 C8.29735299 27.49105951 8.29735299 27.49105951 5 30 C3.68 30 2.36 30 1 30 C0.12198822 19.96557967 -0.1176305 10.06394247 0 0 Z " fill="#69C27B" transform="translate(129,416)"/>
<path d="M0 0 C0.66 0.33 1.32 0.66 2 1 C-1.88251522 4.64941862 -4.39434971 5.51246994 -9.6875 5.6875 C-14.00314112 5.7124868 -14.00314112 5.7124868 -18 7 C-19.4509942 7.01599436 -20.90308507 6.9658149 -22.3515625 6.87890625 C-23.20234375 6.83056641 -24.053125 6.78222656 -24.9296875 6.73242188 C-25.81914062 6.67634766 -26.70859375 6.62027344 -27.625 6.5625 C-28.5221875 6.51029297 -29.419375 6.45808594 -30.34375 6.40429688 C-32.56284012 6.2744565 -34.78149871 6.13948661 -37 6 C-37 5.67 -37 5.34 -37 5 C-36.32533691 4.9498877 -35.65067383 4.89977539 -34.95556641 4.84814453 C-31.84486184 4.61344467 -28.73496663 4.36927639 -25.625 4.125 C-24.56410156 4.04636719 -23.50320313 3.96773438 -22.41015625 3.88671875 C-14.78207967 3.27834454 -7.28676538 2.42892179 0 0 Z " fill="#E6CD4B" transform="translate(381,444)"/>
<path d="M0 0 C1.65 0.33 3.3 0.66 5 1 C4.48960357 5.49148859 3.64606171 9.8450008 2.625 14.25 C2.39039063 15.26578125 2.15578125 16.2815625 1.9140625 17.328125 C0.9693828 20.08949643 0.10746579 21.08412201 -2 23 C-2.33 23.99 -2.66 24.98 -3 26 C-3.66 26 -4.32 26 -5 26 C-3.52142276 20.59529775 -1.76406159 15.33650687 0.125 10.0625 C0.40214844 9.28326172 0.67929687 8.50402344 0.96484375 7.70117188 C1.6413009 5.80009402 2.32037826 3.89994884 3 2 C2.01 1.67 1.02 1.34 0 1 C0 0.67 0 0.34 0 0 Z " fill="#E7CB3A" transform="translate(402,300)"/>
<path d="M0 0 C5.5988935 1.65421853 5.5988935 1.65421853 7.8125 3.5625 C11.23634732 5.81245681 14.98067293 5.75093913 19 6 C19 6.66 19 7.32 19 8 C11.10276444 8.48350422 3.66467297 6.67664721 -4 5 C-3.01 4.67 -2.02 4.34 -1 4 C-0.26676204 1.98491642 -0.26676204 1.98491642 0 0 Z " fill="#5EBD71" transform="translate(119,473)"/>
<path d="M0 0 C0.33 0 0.66 0 1 0 C1.14374652 7.2731744 0.71487802 14.38927518 0 21.625 C-0.09539062 22.62917969 -0.19078125 23.63335937 -0.2890625 24.66796875 C-0.52186665 27.11241236 -0.7589064 29.5563625 -1 32 C-1.66 31.67 -2.32 31.34 -3 31 C-3.22111035 24.25613419 -2.7612068 17.70066118 -2.0625 11 C-1.97564941 10.15074951 -1.88879883 9.30149902 -1.79931641 8.42651367 C-1.71214355 7.62576416 -1.6249707 6.82501465 -1.53515625 6 C-1.456604 5.278125 -1.37805176 4.55625 -1.29711914 3.8125 C-1 2 -1 2 0 0 Z " fill="#5A79A4" transform="translate(430,40)"/>
<path d="M0 0 C21.69761725 -0.44080938 21.69761725 -0.44080938 30 4 C30 4.66 30 5.32 30 6 C23.6579094 5.14539205 17.36480793 4.04460934 11.0625 2.9375 C9.99708984 2.75123047 8.93167969 2.56496094 7.83398438 2.37304688 C5.22248608 1.91632744 2.61116522 1.45861916 0 1 C0 0.67 0 0.34 0 0 Z " fill="#78C586" transform="translate(221,496)"/>
<path d="M0 0 C1.26237731 2.52475462 1.09856404 4.31200466 1.0625 7.125 C1.05347656 8.03507812 1.04445313 8.94515625 1.03515625 9.8828125 C1.02355469 10.58148438 1.01195313 11.28015625 1 12 C7.36939426 14.30003634 7.36939426 14.30003634 14 15.5625 C14.99 15.706875 15.98 15.85125 17 16 C17.33 16.66 17.66 17.32 18 18 C10.88515313 17.6143354 4.64558134 16.60900601 -2 14 C-2.05389087 12.04196493 -2.09274217 10.08351091 -2.125 8.125 C-2.14820312 7.03445313 -2.17140625 5.94390625 -2.1953125 4.8203125 C-2 2 -2 2 0 0 Z " fill="#7CC38A" transform="translate(78,456)"/>
<path d="M0 0 C2.07790016 3.80194935 2.35096449 6.84427084 2.5625 11.1875 C2.39624914 15.41406117 2.39624914 15.41406117 4 19 C4.08700342 20.63472882 4.10701063 22.27314055 4.09765625 23.91015625 C4.09443359 24.89951172 4.09121094 25.88886719 4.08789062 26.90820312 C4.07951172 27.94912109 4.07113281 28.99003906 4.0625 30.0625 C4.05798828 31.10728516 4.05347656 32.15207031 4.04882812 33.22851562 C4.03699913 35.8190666 4.02051689 38.40950559 4 41 C3.67 41 3.34 41 3 41 C2.93941406 40.03578125 2.87882813 39.0715625 2.81640625 38.078125 C2.73261719 36.81484375 2.64882812 35.5515625 2.5625 34.25 C2.48128906 32.99703125 2.40007812 31.7440625 2.31640625 30.453125 C2.11922701 27.23607211 2.11922701 27.23607211 1.5 25.12304688 C0.9017693 22.58290323 0.78499954 20.18570239 0.68359375 17.578125 C0.62075195 16.04091797 0.62075195 16.04091797 0.55664062 14.47265625 C0.51732422 13.40917969 0.47800781 12.34570312 0.4375 11.25 C0.39431641 10.17105469 0.35113281 9.09210938 0.30664062 7.98046875 C0.20071011 5.32043572 0.09863579 2.66031188 0 0 Z " fill="#CEF2D6" transform="translate(127,389)"/>
<path d="M0 0 C2.64 0 5.28 0 8 0 C8 11.88 8 23.76 8 36 C7.67 36 7.34 36 7 36 C6.34 24.78 5.68 13.56 5 2 C3.35 1.67 1.7 1.34 0 1 C0 0.67 0 0.34 0 0 Z " fill="#A65B91" transform="translate(244,1)"/>
<path d="M0 0 C0.99257813 0.34933594 1.98515625 0.69867188 3.0078125 1.05859375 C12.13934198 4.15630691 20.29456867 5.8331879 30 6 C30 6.66 30 7.32 30 8 C31.32 8.33 32.64 8.66 34 9 C33.113125 8.835 32.22625 8.67 31.3125 8.5 C24.49476532 7.52204625 16.64269606 6.96355303 10 9 C10 8.01 10 7.02 10 6 C5.05 4.02 5.05 4.02 0 2 C0 1.34 0 0.68 0 0 Z " fill="#E7D14B" transform="translate(314,368)"/>
<path d="M0 0 C1 2 1 2 0.375 4.9375 C-1.25427128 8.56633148 -2.5750427 9.16221803 -6 11 C-7.01800576 12.31963709 -8.02248365 13.65009646 -9 15 C-9.66 15 -10.32 15 -11 15 C-11 15.99 -11 16.98 -11 18 C-13.64 18 -16.28 18 -19 18 C-16.60490662 15.10067643 -14.68754757 14.49831724 -11 14 C-11 13.34 -11 12.68 -11 12 C-9.35546875 10.44921875 -9.35546875 10.44921875 -7.1875 8.6875 C-4.06609608 6.04673704 -1.80988139 3.73288036 0 0 Z " fill="#E8D14C" transform="translate(403,426)"/>
<path d="M0 0 C-0.33 0.66 -0.66 1.32 -1 2 C-7.98991436 3.53421618 -15.50925248 3.12425215 -22.625 3.0625 C-23.62917969 3.05798828 -24.63335937 3.05347656 -25.66796875 3.04882812 C-28.11204471 3.03718967 -30.5559882 3.0208424 -33 3 C-33 2.67 -33 2.34 -33 2 C-21.96485916 0.76776094 -11.11856481 -0.36520833 0 0 Z " fill="#BE81A9" transform="translate(113,17)"/>
<path d="M0 0 C-0.33 0.66 -0.66 1.32 -1 2 C-10.81790777 3.56495974 -21.08175878 3.11592749 -31 3 C-31 2.67 -31 2.34 -31 2 C-20.56612375 0.32098543 -10.554717 -0.24965165 0 0 Z " fill="#BE7EA9" transform="translate(185,9)"/>
<path d="M0 0 C0.33 0 0.66 0 1 0 C1.51476298 7.96452726 0.82449932 15.26693577 -0.75 23.0625 C-0.90694336 23.88339111 -1.06388672 24.70428223 -1.22558594 25.55004883 C-2.21750268 30.15122882 -3.12144091 32.99330188 -7 36 C-7 33 -7 33 -6.12890625 31.3125 C-4.52019673 28.0171504 -3.76455487 24.55264795 -2.9375 21 C-2.7612207 20.25049072 -2.58494141 19.50098145 -2.40332031 18.72875977 C-1.00013549 12.51588709 -0.24545835 6.36964426 0 0 Z " fill="#E6CC47" transform="translate(412,390)"/>
<path d="M0 0 C2.60478883 -0.0809313 5.20706653 -0.14045434 7.8125 -0.1875 C8.55048828 -0.21263672 9.28847656 -0.23777344 10.04882812 -0.26367188 C15.54974762 -0.33834499 15.54974762 -0.33834499 18.01171875 1.51171875 C18.50091797 2.24841797 18.50091797 2.24841797 19 3 C17.85402344 2.96519531 16.70804687 2.93039062 15.52734375 2.89453125 C13.99741061 2.86637297 12.46746146 2.83907501 10.9375 2.8125 C10.18533203 2.78736328 9.43316406 2.76222656 8.65820312 2.73632812 C3.3153226 2.66694007 -0.2276523 3.58646874 -5 6 C-5.99 6.495 -5.99 6.495 -7 7 C-7 6.01 -7 5.02 -7 4 C-4.35261084 2.5393715 -3.10551666 2 0 2 C0 1.34 0 0.68 0 0 Z " fill="#FEFACE" transform="translate(341,319)"/>
<path d="M0 0 C1.10601562 -0.00515625 2.21203125 -0.0103125 3.3515625 -0.015625 C6.375 0.25 6.375 0.25 10.375 2.25 C0.97 2.745 0.97 2.745 -8.625 3.25 C-8.955 3.91 -9.285 4.57 -9.625 5.25 C-10.945 5.25 -12.265 5.25 -13.625 5.25 C-13.625 5.91 -13.625 6.57 -13.625 7.25 C-14.615 6.92 -15.605 6.59 -16.625 6.25 C-11.95713272 0.86399929 -6.93774228 -0.03249528 0 0 Z " fill="#E4CC47" transform="translate(349.625,320.75)"/>
<path d="M0 0 C0.33 0 0.66 0 1 0 C1.16356156 6.69920873 0.57602131 12.9561169 -0.5 19.5625 C-0.64308594 20.47580078 -0.78617187 21.38910156 -0.93359375 22.33007812 C-1.28296798 24.55442736 -1.63851822 26.7775921 -2 29 C-2.33 29 -2.66 29 -3 29 C-3.02685095 26.52076199 -3.04676547 24.0418116 -3.0625 21.5625 C-3.07506836 20.50192383 -3.07506836 20.50192383 -3.08789062 19.41992188 C-3.09653588 17.61306441 -3.05220011 15.80612397 -3 14 C-2.67 13.67 -2.34 13.34 -2 13 C-1.79103683 11.19188816 -1.63219639 9.37783968 -1.5 7.5625 C-1.10992366 2.21984733 -1.10992366 2.21984733 0 0 Z " fill="#395C8F" transform="translate(306,136)"/>
<path d="M0 0 C0.33 0.99 0.66 1.98 1 3 C0.01 3.33 -0.98 3.66 -2 4 C-2.433125 4.86625 -2.433125 4.86625 -2.875 5.75 C-6.09172464 12.18344928 -12.47311207 15.57407705 -19 18 C-19.66 17.67 -20.32 17.34 -21 17 C-20.27554688 16.55269531 -19.55109375 16.10539062 -18.8046875 15.64453125 C-9.70746516 10.57630987 -9.70746516 10.57630987 -3 3 C-2.34 3 -1.68 3 -1 3 C-0.67 2.01 -0.34 1.02 0 0 Z " fill="#D7F8DD" transform="translate(189,383)"/>
<path d="M0 0 C2.94159419 -0.17303495 4.95744669 -0.01547393 7.75 1 C13.16938456 2.66750294 18.55216483 2.54067737 24 1 C24 1.66 24 2.32 24 3 C23.34 3 22.68 3 22 3 C22 3.66 22 4.32 22 5 C15.29481414 5.19818283 9.34823202 5.30844801 3 3 C3 2.34 3 1.68 3 1 C2.01 0.67 1.02 0.34 0 0 Z " fill="#FDF9CE" transform="translate(330,408)"/>
<path d="M0 0 C4.04128452 -0.1457733 8.08188906 -0.23423181 12.125 -0.3125 C13.83816406 -0.3753418 13.83816406 -0.3753418 15.5859375 -0.43945312 C25.08816964 -0.57756696 25.08816964 -0.57756696 28.8046875 2.51953125 C29.52914062 3.33808594 30.25359375 4.15664063 31 5 C30.01 5.495 30.01 5.495 29 6 C27.33483699 5.29550796 25.66996443 4.58571649 24.046875 3.7890625 C18.83856016 1.78127701 13.14175149 1.7417693 7.625 1.4375 C6.88894531 1.39431641 6.15289062 1.35113281 5.39453125 1.30664062 C3.59651932 1.20156201 1.79828042 1.10037907 0 1 C0 0.67 0 0.34 0 0 Z " fill="#51B166" transform="translate(176,290)"/>
<path d="M0 0 C0.33 0 0.66 0 1 0 C1.36272727 6.40818182 1.36272727 6.40818182 -0.1875 8.9375 C-2.78104716 10.45785523 -4.00068212 10.46656056 -7 10 C-9.10587584 9.08511852 -11.11511463 8.0678658 -13.1328125 6.97265625 C-15.13454486 5.86746821 -15.13454486 5.86746821 -18 5 C-18 4.34 -18 3.68 -18 3 C-12.57903298 4.35524176 -7.9221313 6.36634013 -3 9 C-2.87625 8.2575 -2.7525 7.515 -2.625 6.75 C-2.04513299 4.19858515 -1.26291261 2.2732427 0 0 Z " fill="#E4CC3B" transform="translate(396,326)"/>
<path d="M0 0 C1.65 0 3.3 0 5 0 C5.33 0.66 5.66 1.32 6 2 C5.0409375 2.433125 5.0409375 2.433125 4.0625 2.875 C1.84793921 3.82823451 1.84793921 3.82823451 1 6 C0.84995027 7.3734635 0.75161994 8.7528526 0.68359375 10.1328125 C0.64169922 10.93847656 0.59980469 11.74414062 0.55664062 12.57421875 C0.49766602 13.83685547 0.49766602 13.83685547 0.4375 15.125 C0.39431641 15.97449219 0.35113281 16.82398438 0.30664062 17.69921875 C0.20045764 19.79928223 0.09971503 21.89961948 0 24 C-0.66 24.33 -1.32 24.66 -2 25 C-1.86040799 21.77053202 -1.71221895 18.54151309 -1.5625 15.3125 C-1.52318359 14.40048828 -1.48386719 13.48847656 -1.44335938 12.54882812 C-1.40146484 11.66259766 -1.35957031 10.77636719 -1.31640625 9.86328125 C-1.27974854 9.05157471 -1.24309082 8.23986816 -1.20532227 7.40356445 C-0.98962569 4.87855515 -0.54100548 2.47399303 0 0 Z " fill="#CADDEE" transform="translate(309,119)"/>
<path d="M0 0 C1.98 0 3.96 0 6 0 C5.57781184 1.6498275 5.13675575 3.29483665 4.6875 4.9375 C4.44386719 5.85402344 4.20023438 6.77054688 3.94921875 7.71484375 C3.63597656 8.46894531 3.32273438 9.22304687 3 10 C2.01 10.33 1.02 10.66 0 11 C-1.28571429 3.57142857 -1.28571429 3.57142857 0 0 Z " fill="#AE5F95" transform="translate(144,124)"/>
<path d="M0 0 C2.26171875 0.14453125 2.26171875 0.14453125 4.6875 0.8125 C5.49574219 1.02519531 6.30398438 1.23789063 7.13671875 1.45703125 C8.05904297 1.72580078 8.05904297 1.72580078 9 2 C8.67 2.99 8.34 3.98 8 5 C7.34 5 6.68 5 6 5 C5.67 5.66 5.34 6.32 5 7 C2.36 5.68 -0.28 4.36 -3 3 C-2.01 2.01 -1.02 1.02 0 0 Z " fill="#245091" transform="translate(357,129)"/>
<path d="M0 0 C0 0.33 0 0.66 0 1 C-1.7015625 1.2165625 -1.7015625 1.2165625 -3.4375 1.4375 C-6.80777201 1.61171478 -6.80777201 1.61171478 -8 3 C-15.07656273 4.31047458 -21.90182926 3.87715038 -29 3 C-29 2.67 -29 2.34 -29 2 C-9.03189066 -0.29612756 -9.03189066 -0.29612756 0 0 Z " fill="#CA92B6" transform="translate(217,5)"/>
<path d="M0 0 C0.33 0 0.66 0 1 0 C1 3.96 1 7.92 1 12 C-7.58 12 -16.16 12 -25 12 C-25 11.67 -25 11.34 -25 11 C-24.37955811 10.97494385 -23.75911621 10.9498877 -23.11987305 10.92407227 C-20.30887603 10.80803279 -17.49820759 10.68534241 -14.6875 10.5625 C-13.22280273 10.50352539 -13.22280273 10.50352539 -11.72851562 10.44335938 C-10.32182617 10.38051758 -10.32182617 10.38051758 -8.88671875 10.31640625 C-8.02264404 10.27974854 -7.15856934 10.24309082 -6.26831055 10.20532227 C-3.8352174 10.07252646 -3.8352174 10.07252646 -1 9 C-0.67 6.03 -0.34 3.06 0 0 Z " fill="#955D85" transform="translate(257,240)"/>
<path d="M0 0 C0.825 0.144375 1.65 0.28875 2.5 0.4375 C6.32686278 1.05253152 10.15216707 1.53560637 14 2 C14 2.66 14 3.32 14 4 C12.03852126 5.38938077 10.03833424 6.7260411 8 8 C7.67 6.68 7.34 5.36 7 4 C4.03 3.67 1.06 3.34 -2 3 C-1.34 2.67 -0.68 2.34 0 2 C0 1.34 0 0.68 0 0 Z " fill="#456493" transform="translate(353,78)"/>
<path d="M0 0 C3.452679 3.452679 3.16122788 6.8340711 3.1875 11.5 C3.20167969 12.6446875 3.21585937 13.789375 3.23046875 14.96875 C3 18 3 18 1 21 C0.67 14.07 0.34 7.14 0 0 Z " fill="#FBF1B9" transform="translate(409,384)"/>
<path d="M0 0 C0.33 0 0.66 0 1 0 C2.16711095 8.66996704 2.09744014 17.27369392 2 26 C-1.40709079 20.09437597 -1.07809406 14.17956356 -0.5625 7.625 C-0.51029297 6.88894531 -0.45808594 6.15289062 -0.40429688 5.39453125 C-0.27582277 3.59589371 -0.13879051 1.79787091 0 0 Z " fill="#4CAF60" transform="translate(125,370)"/>
<path d="M0 0 C1.89693861 0.28438952 3.79252027 0.57783792 5.6875 0.875 C6.74324219 1.03742188 7.79898437 1.19984375 8.88671875 1.3671875 C11.82234041 1.96388852 14.30906502 2.6908965 17 4 C17.33 4.66 17.66 5.32 18 6 C16.37419034 5.88601335 14.74932843 5.75844341 13.125 5.625 C12.22007812 5.55539062 11.31515625 5.48578125 10.3828125 5.4140625 C8 5 8 5 6 3 C4.01643517 2.28591666 2.01684563 1.61382258 0 1 C0 0.67 0 0.34 0 0 Z " fill="#FDF9D1" transform="translate(357,351)"/>
<path d="M0 0 C0.92232422 0.00451172 1.84464844 0.00902344 2.79492188 0.01367188 C5.05085048 0.02536062 7.30663967 0.04174545 9.5625 0.0625 C9.5625 0.3925 9.5625 0.7225 9.5625 1.0625 C6.5635162 1.42830347 3.56393236 1.7803911 0.5625 2.125 C-0.27667969 2.22876953 -1.11585937 2.33253906 -1.98046875 2.43945312 C-7.37076812 3.04533949 -12.08276402 2.94875839 -17.4375 2.0625 C-17.4375 1.7325 -17.4375 1.4025 -17.4375 1.0625 C-11.58861957 0.04355924 -5.92830831 -0.05548453 0 0 Z " fill="#8F657F" transform="translate(95.4375,266.9375)"/>
<path d="M0 0 C-0.928125 1.1446875 -0.928125 1.1446875 -1.875 2.3125 C-4.05597052 4.99625809 -4.05597052 4.99625809 -6 8 C-6.66 6.35 -7.32 4.7 -8 3 C-8.66 3 -9.32 3 -10 3 C-10 2.01 -10 1.02 -10 0 C-6.30458414 -0.95024979 -3.69541586 -0.95024979 0 0 Z " fill="#154788" transform="translate(360,81)"/>
<path d="M0 0 C0.33 0 0.66 0 1 0 C1.49452303 4.94523035 0.31189926 7.81139144 -1.9765625 12.03125 C-3.30852382 14.5934962 -4.17179531 17.2393177 -5 20 C-5.90123561 16.98670841 -6.08996269 14.50561677 -5.8125 11.375 C-5.75707031 10.59898438 -5.70164063 9.82296875 -5.64453125 9.0234375 C-5 7 -5 7 -2.99609375 5.890625 C-2.00802734 5.44976562 -2.00802734 5.44976562 -1 5 C-0.18828772 2.44480079 -0.18828772 2.44480079 0 0 Z " fill="#AA5A90" transform="translate(162,90)"/>
<path d="M0 0 C6.875 5.75 6.875 5.75 8 8 C6.68 8 5.36 8 4 8 C4 10.97 4 13.94 4 17 C3.67 17 3.34 17 3 17 C2.01 11.39 1.02 5.78 0 0 Z " fill="#B0709C" transform="translate(152,163)"/>
<path d="M0 0 C0.66 0 1.32 0 2 0 C1.34 2.31 0.68 4.62 0 7 C-0.66 7 -1.32 7 -2 7 C-1.67 7.99 -1.34 8.98 -1 10 C-3.97 12.475 -3.97 12.475 -7 15 C-6.69306887 9.01484303 -3.77089394 4.50106704 0 0 Z " fill="#DEEAF5" transform="translate(321,65)"/>
<path d="M0 0 C0.99 0 1.98 0 3 0 C1.125 4.75 1.125 4.75 0 7 C-0.66 7 -1.32 7 -2 7 C-2.268125 7.639375 -2.53625 8.27875 -2.8125 8.9375 C-4 11 -4 11 -7 12 C-7 11.01 -7 10.02 -7 9 C-6.01 8.34 -5.02 7.68 -4 7 C-4 6.01 -4 5.02 -4 4 C-3.01 4 -2.02 4 -1 4 C-0.67 2.68 -0.34 1.36 0 0 Z " fill="#49AF5F" transform="translate(188,379)"/>
<path d="M0 0 C2.77141717 -0.08089542 5.54047819 -0.14044062 8.3125 -0.1875 C9.09818359 -0.21263672 9.88386719 -0.23777344 10.69335938 -0.26367188 C11.45068359 -0.27333984 12.20800781 -0.28300781 12.98828125 -0.29296875 C14.03302612 -0.31653442 14.03302612 -0.31653442 15.09887695 -0.34057617 C17.54489783 0.09761557 18.42702086 1.13437358 20 3 C13.13484138 3.26404456 6.74153283 2.25841946 0 1 C0 0.67 0 0.34 0 0 Z " fill="#65BF79" transform="translate(181,489)"/>
<path d="M0 0 C1.66666667 0 3.33333333 0 5 0 C4.48397608 2.06409569 3.97798299 4.06054677 3.25 6.0625 C3.1675 6.701875 3.085 7.34125 3 8 C4.35444301 9.77190909 4.35444301 9.77190909 6 11 C3.525 10.01 3.525 10.01 1 9 C1 7.68 1 6.36 1 5 C0.01 5 -0.98 5 -2 5 C-1.125 1.125 -1.125 1.125 0 0 Z " fill="#E8CC31" transform="translate(276,416)"/>
<path d="M0 0 C-2.55274874 2.45605371 -3.85890643 2.98802939 -7.453125 3.29296875 C-8.70609375 3.25816406 -9.9590625 3.22335937 -11.25 3.1875 C-12.51328125 3.16042969 -13.7765625 3.13335937 -15.078125 3.10546875 C-16.04234375 3.07066406 -17.0065625 3.03585937 -18 3 C-13.80037019 -1.19962981 -5.654559 -0.10097427 0 0 Z " fill="#559A5D" transform="translate(176,260)"/>
<path d="M0 0 C0.33 0 0.66 0 1 0 C1.44310722 6.49890586 0.33429115 12.90970952 -2 19 C-2.99 19.33 -3.98 19.66 -5 20 C-3.33333333 13.33333333 -1.66666667 6.66666667 0 0 Z " fill="#3F5F8F" transform="translate(355,158)"/>
<path d="M0 0 C0.33 0 0.66 0 1 0 C1.66 3.63 2.32 7.26 3 11 C-0.10551666 11 -1.35261084 10.4606285 -4 9 C-2.80100302 5.9168649 -1.52299523 2.93720508 0 0 Z " fill="#AE5F95" transform="translate(180,138)"/>
<path d="M0 0 C2.97 0 5.94 0 9 0 C8.67 1.98 8.34 3.96 8 6 C8.66 6 9.32 6 10 6 C10 6.66 10 7.32 10 8 C10.66 8.33 11.32 8.66 12 9 C8.0557333 9 7.17603973 7.68625863 4.3125 5.0625 C3.50425781 4.33160156 2.69601563 3.60070312 1.86328125 2.84765625 C1.24839844 2.23792969 0.63351563 1.62820313 0 1 C0 0.67 0 0.34 0 0 Z " fill="#50B466" transform="translate(214,300)"/>
<path d="M0 0 C0.66 0 1.32 0 2 0 C2 0.66 2 1.32 2 2 C2.61875 2.309375 3.2375 2.61875 3.875 2.9375 C5.25 3.625 6.625 4.3125 8 5 C9.53668865 5.22467831 11.07968054 5.40796805 12.625 5.5625 C13.44226563 5.64628906 14.25953125 5.73007812 15.1015625 5.81640625 C15.72804688 5.87699219 16.35453125 5.93757813 17 6 C17 6.66 17 7.32 17 8 C5.85515921 7.36126407 5.85515921 7.36126407 1 4 C0.125 1.8125 0.125 1.8125 0 0 Z " fill="#E7D054" transform="translate(335,341)"/>
<path d="M0 0 C0.33 0 0.66 0 1 0 C0.67 4.29 0.34 8.58 0 13 C-0.33 12.34 -0.66 11.68 -1 11 C-1.66 11 -2.32 11 -3 11 C-3.33 11.99 -3.66 12.98 -4 14 C-4.66 14 -5.32 14 -6 14 C-6 13.01 -6 12.02 -6 11 C-5.34 11 -4.68 11 -4 11 C-3.34 9.35 -2.68 7.7 -2 6 C-1.34 6 -0.68 6 0 6 C0 4.02 0 2.04 0 0 Z " fill="#3F6399" transform="translate(412,239)"/>
<path d="M0 0 C1.0209375 0.2165625 1.0209375 0.2165625 2.0625 0.4375 C5.1090817 1.07390734 5.1090817 1.07390734 8.6875 1.3125 C9.780625 1.539375 10.87375 1.76625 12 2 C13.20703125 4.04296875 13.20703125 4.04296875 14 6 C12.22604492 5.57533503 10.45589369 5.1347591 8.6875 4.6875 C7.70136719 4.44386719 6.71523438 4.20023437 5.69921875 3.94921875 C2.99858988 2.99950411 1.79043784 2.18152323 0 0 Z " fill="#FCF5C3" transform="translate(304,437)"/>
<path d="M0 0 C0.99 0.33 1.98 0.66 3 1 C2.01 4.3 1.02 7.6 0 11 C-0.66 11 -1.32 11 -2 11 C-2.99 14.465 -2.99 14.465 -4 18 C-4.33 18 -4.66 18 -5 18 C-5 15.69 -5 13.38 -5 11 C-3.68 10.67 -2.36 10.34 -1 10 C-0.67 6.7 -0.34 3.4 0 0 Z " fill="#E8CD44" transform="translate(290,391)"/>
<path d="M0 0 C1.41128754 4.59165383 0.11300128 7.77399745 -2 12 C-2.66 12 -3.32 12 -4 12 C-4 12.66 -4 13.32 -4 14 C-4.66 14 -5.32 14 -6 14 C-4.16508812 9.25981099 -2.08058541 4.63586749 0 0 Z " fill="#4EB363" transform="translate(227,379)"/>
<path d="M0 0 C2.64 0.33 5.28 0.66 8 1 C8 1.66 8 2.32 8 3 C10.31 3.33 12.62 3.66 15 4 C15 4.99 15 5.98 15 7 C12.50064942 6.5371573 10.82012588 5.89112882 8.625 4.5625 C5.82350323 2.8949424 3.1120986 1.94086702 0 1 C0 0.67 0 0.34 0 0 Z " fill="#FBF5BF" transform="translate(378,328)"/>
<path d="M0 0 C0.33 0.66 0.66 1.32 1 2 C-0.37707107 5.14759102 -1.56159764 7.56159764 -4 10 C-4.99 10 -5.98 10 -7 10 C-5.6062718 5.56541027 -3.39417765 3.12621626 0 0 Z " fill="#FCF5CA" transform="translate(307,302)"/>
<path d="M0 0 C1.17949219 0.01804687 2.35898437 0.03609375 3.57421875 0.0546875 C4.92966797 0.08949219 4.92966797 0.08949219 6.3125 0.125 C6.3125 0.455 6.3125 0.785 6.3125 1.125 C5.35537109 1.19847656 5.35537109 1.19847656 4.37890625 1.2734375 C3.55261719 1.34820312 2.72632813 1.42296875 1.875 1.5 C0.63943359 1.60441406 0.63943359 1.60441406 -0.62109375 1.7109375 C-1.64396484 1.91589844 -1.64396484 1.91589844 -2.6875 2.125 C-3.0175 2.785 -3.3475 3.445 -3.6875 4.125 C-5.75 4.75 -5.75 4.75 -7.6875 5.125 C-8.3475 4.135 -9.0075 3.145 -9.6875 2.125 C-6.05554504 -0.29630331 -4.30400652 -0.08522785 0 0 Z " fill="#265291" transform="translate(338.6875,113.875)"/>
<path d="M0 0 C6.37675351 6.20440882 6.37675351 6.20440882 8 9 C7.6875 11.25 7.6875 11.25 7 13 C2.56398034 9.48177751 1.47966871 5.24609814 0 0 Z " fill="#53B265" transform="translate(184,328)"/>
<path d="M0 0 C1.65 0.33 3.3 0.66 5 1 C4.67 1.66 4.34 2.32 4 3 C2.68 2.67 1.36 2.34 0 2 C0.103125 2.928125 0.20625 3.85625 0.3125 4.8125 C0.209375 5.864375 0.10625 6.91625 0 8 C-2.5 9.875 -2.5 9.875 -5 11 C-3.77472971 6.94718288 -2.30119506 3.55639236 0 0 Z " fill="#FBF1BC" transform="translate(295,389)"/>
<path d="M0 0 C0.33 0 0.66 0 1 0 C1.08685287 3.29150125 1.14033895 6.5827096 1.1875 9.875 C1.21263672 10.81214844 1.23777344 11.74929688 1.26367188 12.71484375 C1.27333984 13.61074219 1.28300781 14.50664062 1.29296875 15.4296875 C1.3086792 16.25710449 1.32438965 17.08452148 1.34057617 17.93701172 C1.22818604 18.61779785 1.1157959 19.29858398 1 20 C0.01 20.66 -0.98 21.32 -2 22 C-1.84660156 21.18273437 -1.69320312 20.36546875 -1.53515625 19.5234375 C-0.9322218 15.55375228 -0.65842036 11.63053967 -0.4375 7.625 C-0.39431641 6.88894531 -0.35113281 6.15289062 -0.30664062 5.39453125 C-0.20156201 3.59651932 -0.10037907 1.79828042 0 0 Z " fill="#D6F8D9" transform="translate(195,352)"/>
<path d="M0 0 C0.66 0 1.32 0 2 0 C1.42365861 4.75481646 -0.55068521 7.97048212 -3 12 C-3.88336837 9.5332355 -4.1312406 8.36140628 -3.22265625 5.859375 C-2.83980469 5.16328125 -2.45695313 4.4671875 -2.0625 3.75 C-1.68222656 3.04359375 -1.30195313 2.3371875 -0.91015625 1.609375 C-0.60980469 1.07828125 -0.30945313 0.5471875 0 0 Z " fill="#AC5A90" transform="translate(229,194)"/>
<path d="M0 0 C1.89515194 6.58996015 -0.2013755 12.03771302 -3 18 C-4.63129887 13.93714243 -3.29968777 10.79897816 -2.0625 6.75 C-1.68222656 5.48671875 -1.30195313 4.2234375 -0.91015625 2.921875 C-0.60980469 1.95765625 -0.30945313 0.9934375 0 0 Z " fill="#446695" transform="translate(345,194)"/>
<path d="M0 0 C1.32 0.33 2.64 0.66 4 1 C2.02 1.99 2.02 1.99 0 3 C0 3.99 0 4.98 0 6 C-2.64 6 -5.28 6 -8 6 C-5.60490662 3.10067643 -3.68754757 2.49831724 0 2 C0 1.34 0 0.68 0 0 Z " fill="#E9CC3F" transform="translate(392,438)"/>
<path d="M0 0 C0.66 0 1.32 0 2 0 C2.33 0.99 2.66 1.98 3 3 C3.66 3.33 4.32 3.66 5 4 C5.625 6.5625 5.625 6.5625 6 9 C6.66 9 7.32 9 8 9 C8.33 10.32 8.66 11.64 9 13 C8.34 12.67 7.68 12.34 7 12 C7 11.34 7 10.68 7 10 C6.401875 9.79375 5.80375 9.5875 5.1875 9.375 C2.1616573 7.47304173 1.35291498 5.24699596 0 2 C0 1.34 0 0.68 0 0 Z " fill="#FDF8C7" transform="translate(295,348)"/>
<path d="M0 0 C0.99 0.33 1.98 0.66 3 1 C3.05422947 2.4370809 3.09289723 3.87475462 3.125 5.3125 C3.14820313 6.11300781 3.17140625 6.91351563 3.1953125 7.73828125 C3 10 3 10 1 13 C0.67 8.71 0.34 4.42 0 0 Z " fill="#C380AC" transform="translate(54,112)"/>
<path d="M0 0 C0.97791242 2.64036353 1.03638105 3.87266632 0.25 6.625 C-1 9 -1 9 -4 11 C-5.19232613 13.05003955 -5.19232613 13.05003955 -6 15 C-6.33 14.01 -6.66 13.02 -7 12 C-5.8203125 9.84375 -5.8203125 9.84375 -4.125 7.5 C-2.26770381 4.90842392 -1.01516762 3.04550286 0 0 Z " fill="#B36A9A" transform="translate(208,92)"/>
<path d="M0 0 C2.97 0 5.94 0 9 0 C9 0.66 9 1.32 9 2 C9.99 2.33 10.98 2.66 12 3 C10.02 3.99 10.02 3.99 8 5 C7.67 4.34 7.34 3.68 7 3 C4.67843403 2.59270772 2.3431213 2.25561323 0 2 C0 1.34 0 0.68 0 0 Z " fill="#BD6CA1" transform="translate(235,2)"/>
<path d="M0 0 C0.33 0 0.66 0 1 0 C1 4.95 1 9.9 1 15 C-2.47823115 16.15941038 -4.45895578 15.70820884 -8 15 C-8 14.67 -8 14.34 -8 14 C-4.535 13.505 -4.535 13.505 -1 13 C-0.67 8.71 -0.34 4.42 0 0 Z " fill="#B7E8BF" transform="translate(263,488)"/>
<path d="M0 0 C-1.59622656 1.03320481 -3.20229106 2.05122429 -4.8125 3.0625 C-6.15248047 3.91521484 -6.15248047 3.91521484 -7.51953125 4.78515625 C-10 6 -10 6 -13 5 C-12.360625 4.896875 -11.72125 4.79375 -11.0625 4.6875 C-10.381875 4.460625 -9.70125 4.23375 -9 4 C-8.67 3.01 -8.34 2.02 -8 1 C-4.95413501 -1.10059655 -3.45012008 -1.01261386 0 0 Z " fill="#53B067" transform="translate(176,396)"/>
<path d="M0 0 C0.66 0 1.32 0 2 0 C2.66 1.65 3.32 3.3 4 5 C3.34 5 2.68 5 2 5 C2 8.63 2 12.26 2 16 C1.67 16 1.34 16 1 16 C0.67 10.72 0.34 5.44 0 0 Z " fill="#C37DAE" transform="translate(64,187)"/>
<path d="M0 0 C0.33 0 0.66 0 1 0 C1.33 5.61 1.66 11.22 2 17 C0.68 17.33 -0.64 17.66 -2 18 C-1.505 16.515 -1.505 16.515 -1 15 C-0.77281504 12.43365139 -0.58391816 9.88321893 -0.4375 7.3125 C-0.39431641 6.61060547 -0.35113281 5.90871094 -0.30664062 5.18554688 C-0.2008264 3.45724794 -0.09993419 1.7286489 0 0 Z " fill="#5C7AA5" transform="translate(369,80)"/>
<path d="M0 0 C4.62 0 9.24 0 14 0 C14.33 0.99 14.66 1.98 15 3 C10.30976546 2.43393721 5.65499974 1.81462495 1 1 C0.67 1.66 0.34 2.32 0 3 C0 2.01 0 1.02 0 0 Z " fill="#A9588D" transform="translate(173,68)"/>
<path d="M0 0 C0.66 0.33 1.32 0.66 2 1 C0.38405168 3.04119788 -1.2856382 5.04072937 -3 7 C-3.66 7 -4.32 7 -5 7 C-5 7.66 -5 8.32 -5 9 C-6.65 9 -8.3 9 -10 9 C-9.278125 8.443125 -8.55625 7.88625 -7.8125 7.3125 C-5.02542701 5.02090666 -2.51358472 2.58540143 0 0 Z " fill="#56B36A" transform="translate(204,413)"/>
<path d="M0 0 C0.33 0 0.66 0 1 0 C0.25184193 6.10995753 -0.5421161 11.81317416 -4 17 C-4.49119563 11.9243118 -2.69441003 7.6881604 -1 3 C-0.67 2.01 -0.34 1.02 0 0 Z " fill="#FEF9D4" transform="translate(409,406)"/>
<path d="M0 0 C0.66 0 1.32 0 2 0 C1.33501617 4.38889325 -0.18757677 7.9811485 -2 12 C-3.00724314 8.97827058 -3.30681401 7.14484365 -3 4 C-1.625 1.6875 -1.625 1.6875 0 0 Z " fill="#FDF6C8" transform="translate(399,314)"/>
<path d="M0 0 C1.3049427 4.05982172 0.73256315 6.44868981 -1.0625 10.25 C-1.371875 10.8275 -1.68125 11.405 -2 12 C-3.98 12 -5.96 12 -8 12 C-8 11.67 -8 11.34 -8 11 C-6.35 11 -4.7 11 -3 11 C-2.86722656 10.37351563 -2.73445313 9.74703125 -2.59765625 9.1015625 C-2.42105469 8.28429687 -2.24445313 7.46703125 -2.0625 6.625 C-1.88847656 5.81289062 -1.71445312 5.00078125 -1.53515625 4.1640625 C-1 2 -1 2 0 0 Z " fill="#4D6E9B" transform="translate(340,213)"/>
<path d="M0 0 C1 4 1 4 0 7 C-0.99 7.33 -1.98 7.66 -3 8 C-3.33 8.66 -3.66 9.32 -4 10 C-4.66 9.67 -5.32 9.34 -6 9 C-4.02 6.03 -2.04 3.06 0 0 Z " fill="#B0669A" transform="translate(188,126)"/>
<path d="M0 0 C-2.85410334 1.50560497 -5.68124642 2.63216796 -8.75 3.625 C-9.54921875 3.88539063 -10.3484375 4.14578125 -11.171875 4.4140625 C-11.77515625 4.60742188 -12.3784375 4.80078125 -13 5 C-9.40025623 -0.39961565 -6.27144486 -1.6043231 0 0 Z " fill="#E4FCE8" transform="translate(179,429)"/>
<path d="M0 0 C3.375 0.6875 3.375 0.6875 7 2 C8.4375 4.625 8.4375 4.625 9 7 C8.401875 6.690625 7.80375 6.38125 7.1875 6.0625 C4.91043228 4.89790296 4.91043228 4.89790296 2 4 C0.8125 1.9375 0.8125 1.9375 0 0 Z " fill="#E4CF3F" transform="translate(302,393)"/>
<path d="M0 0 C0 0.33 0 0.66 0 1 C-1.60064843 1.53154742 -3.20568874 2.04988353 -4.8125 2.5625 C-5.70582031 2.85253906 -6.59914063 3.14257812 -7.51953125 3.44140625 C-10 4 -10 4 -13 3 C-8.50235477 -1.63819664 -5.96030685 -1.2122658 0 0 Z " fill="#E4C932" transform="translate(341,285)"/>
<path d="M0 0 C3 3 3 3 3.07421875 6.35546875 C2.94660156 7.62003906 2.81898437 8.88460937 2.6875 10.1875 C2.56761719 11.45980469 2.44773438 12.73210937 2.32421875 14.04296875 C2.21722656 15.01878906 2.11023437 15.99460937 2 17 C1.67 17 1.34 17 1 17 C0.67 11.39 0.34 5.78 0 0 Z " fill="#A75389" transform="translate(53,95)"/>
<path d="M0 0 C2.64 0 5.28 0 8 0 C8 4.29 8 8.58 8 13 C7.67 13 7.34 13 7 13 C6.67 9.7 6.34 6.4 6 3 C4.02 2.34 2.04 1.68 0 1 C0 0.67 0 0.34 0 0 Z " fill="#DAADCC" transform="translate(244,1)"/>
<path d="M0 0 C0.33 1.32 0.66 2.64 1 4 C-3.29 3.67 -7.58 3.34 -12 3 C-12 2.67 -12 2.34 -12 2 C-8.04 1.34 -4.08 0.68 0 0 Z " fill="#74C582" transform="translate(108,472)"/>
<path d="M0 0 C2.97 0.495 2.97 0.495 6 1 C4.02579865 3.52259061 3.03254358 3.9929808 -0.1875 4.6875 C-1.5796875 4.8421875 -1.5796875 4.8421875 -3 5 C-3 4.34 -3 3.68 -3 3 C-2.01 3 -1.02 3 0 3 C0 2.01 0 1.02 0 0 Z " fill="#FEFBDC" transform="translate(381,440)"/>
<path d="M0 0 C0.33 0 0.66 0 1 0 C1.63019694 8.19256018 1.63019694 8.19256018 -1 11.5625 C-1.99 12.2740625 -1.99 12.2740625 -3 13 C-3 10 -3 10 -2.0625 8.1875 C-0.75569653 5.49702226 -0.40213297 2.94897515 0 0 Z " fill="#EAD354" transform="translate(408,413)"/>
<path d="M0 0 C10.55808656 0.96355353 10.55808656 0.96355353 15 2 C15 2.33 15 2.66 15 3 C4.44191344 3.3690205 4.44191344 3.3690205 0 1 C0 0.67 0 0.34 0 0 Z " fill="#FEF8D0" transform="translate(342,348)"/>
<path d="M0 0 C2.64 0 5.28 0 8 0 C8 0.66 8 1.32 8 2 C8.804375 2.12375 9.60875 2.2475 10.4375 2.375 C11.7059375 2.684375 11.7059375 2.684375 13 3 C13.33 3.66 13.66 4.32 14 5 C12.41531323 4.54636829 10.83230076 4.08688548 9.25 3.625 C8.36828125 3.36976563 7.4865625 3.11453125 6.578125 2.8515625 C4.23919428 2.0790066 2.16557438 1.16374324 0 0 Z " fill="#FDF7C9" transform="translate(364,323)"/>
<path d="M0 0 C2.31 0.33 4.62 0.66 7 1 C3.49461443 2.96301592 -0.13351728 3.95902388 -4 5 C-4.33 4.34 -4.66 3.68 -5 3 C-3.68 3 -2.36 3 -1 3 C-0.67 2.01 -0.34 1.02 0 0 Z " fill="#AD5C92" transform="translate(106,84)"/>
<path d="M0 0 C2.475 0.495 2.475 0.495 5 1 C5 1.66 5 2.32 5 3 C5.969375 3.28875 6.93875 3.5775 7.9375 3.875 C11 5 11 5 12 7 C7.39104317 5.68315519 3.85859765 3.84801255 0 1 C0 0.67 0 0.34 0 0 Z " fill="#FDF7C7" transform="translate(281,425)"/>
<path d="M0 0 C1.60517097 0.08733576 3.20921662 0.19552224 4.8125 0.3125 C6.15248047 0.39951172 6.15248047 0.39951172 7.51953125 0.48828125 C10.30604 1.06313581 11.24135754 1.8206856 13 4 C8.28596212 3.52060632 4.33420699 3.03165952 0 1 C0 0.67 0 0.34 0 0 Z " fill="#FBF2B4" transform="translate(321,370)"/>
<path d="M0 0 C0 0.99 0 1.98 0 3 C-1.75 4.60546875 -1.75 4.60546875 -4 6.1875 C-4.7425 6.71730469 -5.485 7.24710937 -6.25 7.79296875 C-6.8275 8.19128906 -7.405 8.58960937 -8 9 C-8 8.01 -8 7.02 -8 6 C-6.25 4.39453125 -6.25 4.39453125 -4 2.8125 C-3.2575 2.28269531 -2.515 1.75289063 -1.75 1.20703125 C-1.1725 0.80871094 -0.595 0.41039063 0 0 Z " fill="#E0EAF7" transform="translate(363,84)"/>
<path d="M0 0 C1.41750563 0.11509661 2.83401169 0.24253658 4.25 0.375 C5.03890625 0.44460937 5.8278125 0.51421875 6.640625 0.5859375 C9 1 9 1 13 3 C9.04 3 5.08 3 1 3 C0.67 2.01 0.34 1.02 0 0 Z " fill="#425F8A" transform="translate(319,72)"/>
<path d="M0 0 C2.31 0 4.62 0 7 0 C7 0.66 7 1.32 7 2 C8.65 2 10.3 2 12 2 C12 2.33 12 2.66 12 3 C3.42857143 3.28571429 3.42857143 3.28571429 0 1 C0 0.67 0 0.34 0 0 Z " fill="#AD548C" transform="translate(190,71)"/>
<path d="M0 0 C0.33 1.32 0.66 2.64 1 4 C-0.9375 6.25 -0.9375 6.25 -3 8 C-3.66 7.67 -4.32 7.34 -5 7 C-3.35 4.69 -1.7 2.38 0 0 Z " fill="#4FB366" transform="translate(217,398)"/>
<path d="M0 0 C0.33 0.66 0.66 1.32 1 2 C-0.25 5.5625 -0.25 5.5625 -2 9 C-2.99 9.33 -3.98 9.66 -5 10 C-3.66511872 6.40608886 -2.03977277 3.24509304 0 0 Z " fill="#B26798" transform="translate(222,208)"/>
<path d="M0 0 C0.66 1.32 1.32 2.64 2 4 C0.35 5.32 -1.3 6.64 -3 8 C-3.66 7.67 -4.32 7.34 -5 7 C-3.35 4.69 -1.7 2.38 0 0 Z " fill="#335A8E" transform="translate(366,99)"/>
<path d="M0 0 C3.73487777 0.4979837 5.81237635 0.87491756 9 3 C5.37 3 1.74 3 -2 3 C-1.34 2.67 -0.68 2.34 0 2 C0 1.34 0 0.68 0 0 Z " fill="#3B608E" transform="translate(353,78)"/>
<path d="M0 0 C2.31 0.33 4.62 0.66 7 1 C7.66 2.65 8.32 4.3 9 6 C5.06326356 4.68775452 2.77280706 3.08089673 0 0 Z " fill="#E7CE46" transform="translate(391,292)"/>
<path d="M0 0 C0.33 0 0.66 0 1 0 C1 2.31 1 4.62 1 7 C-0.32 7.33 -1.64 7.66 -3 8 C-1.125 2.25 -1.125 2.25 0 0 Z " fill="#EBD051" transform="translate(396,326)"/>
<path d="M0 0 C1.65 1.65 3.3 3.3 5 5 C3.02 5.99 3.02 5.99 1 7 C0.67 6.34 0.34 5.68 0 5 C0.33 4.34 0.66 3.68 1 3 C0.34 3 -0.32 3 -1 3 C-0.67 2.01 -0.34 1.02 0 0 Z " fill="#B2639A" transform="translate(185,198)"/>
<path d="M0 0 C2.39763185 2.39763185 2.34280586 3.33273498 2.625 6.625 C2.69976562 7.44226563 2.77453125 8.25953125 2.8515625 9.1015625 C2.90054688 9.72804687 2.94953125 10.35453125 3 11 C0.39665076 8.28817788 0.00543309 7.10866187 -0.1875 3.25 C-0.125625 2.1775 -0.06375 1.105 0 0 Z " fill="#AE6697" transform="translate(115,180)"/>
<path d="M0 0 C1.98 0 3.96 0 6 0 C4.35830472 2.02054804 2.69088222 4.02043058 1 6 C0.67 6 0.34 6 0 6 C0 4.02 0 2.04 0 0 Z " fill="#14478D" transform="translate(325,75)"/>
<path d="M0 0 C2.31 0.33 4.62 0.66 7 1 C7.33 2.32 7.66 3.64 8 5 C7.34 5 6.68 5 6 5 C6 4.34 6 3.68 6 3 C4.02 2.34 2.04 1.68 0 1 C0 0.67 0 0.34 0 0 Z " fill="#355988" transform="translate(352,59)"/>
<path d="M0 0 C2.97 0.33 5.94 0.66 9 1 C9 1.99 9 2.98 9 4 C6.03 3.01 3.06 2.02 0 1 C0 0.67 0 0.34 0 0 Z " fill="#E4CF44" transform="translate(311,400)"/>
<path d="M0 0 C1.98 0.99 1.98 0.99 4 2 C4 4.31 4 6.62 4 9 C2.00902154 6.01353231 1.05875074 3.40312738 0 0 Z " fill="#E5CF46" transform="translate(408,380)"/>
<path d="M0 0 C3.93673644 1.31224548 6.22719294 2.91910327 9 6 C5.32579134 5.69381595 4.21864487 5.24228216 1.6875 2.4375 C1.130625 1.633125 0.57375 0.82875 0 0 Z " fill="#E2FADF" transform="translate(208,297)"/>
<path d="M0 0 C0.66 0 1.32 0 2 0 C1.67 2.97 1.34 5.94 1 9 C0.67 9 0.34 9 0 9 C-0.87890625 2.84765625 -0.87890625 2.84765625 -1 1 C-0.67 0.67 -0.34 0.34 0 0 Z " fill="#1B4681" transform="translate(419,139)"/>
<path d="M0 0 C-1.98 1.32 -3.96 2.64 -6 4 C-6.66 3.01 -7.32 2.02 -8 1 C-3.375 -1.125 -3.375 -1.125 0 0 Z " fill="#31548C" transform="translate(347,98)"/>
<path d="M0 0 C0.99 0.33 1.98 0.66 3 1 C3.6875 3.0625 3.6875 3.0625 4 5 C3.01 5.495 3.01 5.495 2 6 C1.34 5.67 0.68 5.34 0 5 C0 3.35 0 1.7 0 0 Z " fill="#104790" transform="translate(334,84)"/>
<path d="M0 0 C0.66 0 1.32 0 2 0 C3.16552619 4.19589427 3.08954032 4.82091936 1 9 C0.67 6.03 0.34 3.06 0 0 Z " fill="#C786B4" transform="translate(44,35)"/>
</svg>
